<svg width="791" height="215" viewBox="0 0 791 215" fill="none" xmlns="http://www.w3.org/2000/svg">
<path d="M127.039 125H35C37.8681 112.091 48.5582 114.299 57.1625 109.193C73.5888 99.4463 70.9814 89.9624 70.9814 86.0103C70.9814 82.0587 68.1134 79.6878 66.549 78.1071C64.9845 76.5264 61.3343 74.1554 57.1625 65.4618C48.5582 49.9186 54.8158 24.3646 70.9814 12.7731C87.1471 1.18161 109.571 4.60637 119.217 9.87524C126.935 14.0903 128.865 21.2911 128.865 24.3646V47.5477C130.69 50.2699 134.758 56.3467 136.426 58.8757C138.094 61.4047 135.73 62.5639 134.34 62.8274H128.865V86.0103C128.865 95.4942 119.739 95.7579 117.392 95.7579H107.745V109.193C125.475 114.462 127.996 121.927 127.039 125Z" fill="#39FF14"/>
<path d="M15.1557 169H109C106.075 156.092 95.1759 158.299 86.4026 153.193C69.6545 143.446 72.313 133.962 72.313 130.01C72.313 126.059 75.2373 123.688 76.8324 122.107C78.4275 120.526 82.1494 118.156 86.4026 109.462C95.1759 93.9189 88.7954 68.3646 72.313 56.7731C55.8304 45.1816 32.9675 48.6064 23.1312 53.8752C15.262 58.0903 13.2948 65.2911 13.2948 68.3647V91.5475C11.4338 94.2702 7.28662 100.346 5.5852 102.876C3.88377 105.405 6.29412 106.564 7.71198 106.827H13.2948V130.01C13.2948 139.494 22.5994 139.758 24.9921 139.758H34.8285V153.193C16.7508 158.462 14.181 165.927 15.1557 169Z" fill="#FF69B4" stroke="black" stroke-width="6"/>
<path d="M93.5 152.775C89.8532 152.775 86.3557 151.34 83.7773 148.785C81.1987 146.229 79.75 142.764 79.75 139.15C79.75 135.536 81.1987 132.071 83.7773 129.515C86.3557 126.96 89.8532 125.525 93.5 125.525C97.1468 125.525 100.644 126.96 103.223 129.515C105.801 132.071 107.25 135.536 107.25 139.15C107.25 140.939 106.894 142.711 106.203 144.364C105.512 146.017 104.5 147.519 103.223 148.785C101.946 150.049 100.43 151.053 98.7622 151.738C97.0936 152.423 95.3059 152.775 93.5 152.775ZM93.5 101C83.2892 101 73.4965 105.02 66.2764 112.174C59.0562 119.329 55 129.032 55 139.15C55 158.534 68.2072 168.373 79.75 182.895C85.2459 189.809 90.3636 210 93.5 210C96.6364 210 101.754 189.809 107.25 182.895C118.793 168.373 132 158.534 132 139.15C132 129.032 127.944 119.329 120.724 112.174C113.503 105.02 103.711 101 93.5 101Z" fill="#7F7F7F"/>
<path d="M127.039 125H35C37.8681 112.091 48.5582 114.299 57.1625 109.193C73.5888 99.4463 70.9814 89.9624 70.9814 86.0103C70.9814 82.0587 68.1134 79.6878 66.549 78.1071C64.9845 76.5264 61.3343 74.1554 57.1625 65.4618C48.5582 49.9186 54.8158 24.3646 70.9814 12.7731C87.1471 1.18161 109.571 4.60637 119.217 9.87524C126.935 14.0903 128.865 21.2911 128.865 24.3646V47.5477C130.69 50.2699 134.758 56.3467 136.426 58.8757C138.094 61.4047 135.73 62.5639 134.34 62.8274H128.865V86.0103C128.865 95.4942 119.739 95.7579 117.392 95.7579H107.745V109.193C125.475 114.462 127.996 121.927 127.039 125Z" fill="#39FF14" stroke="black" stroke-width="6"/>
<path d="M171.844 169H78C80.9243 156.092 91.824 158.299 100.597 153.193C117.345 143.446 114.687 133.962 114.687 130.01C114.687 126.059 111.763 123.688 110.168 122.107C108.573 120.526 104.85 118.156 100.597 109.462C91.824 93.9189 98.2046 68.3646 114.687 56.7731C131.169 45.1816 154.033 48.6064 163.869 53.8752C171.738 58.0903 173.705 65.2911 173.705 68.3647V91.5475C175.566 94.2702 179.714 100.346 181.415 102.876C183.116 105.405 180.706 106.564 179.288 106.827H173.705V130.01C173.705 139.494 164.4 139.758 162.008 139.758H152.172V153.193C170.25 158.462 172.819 165.927 171.844 169Z" fill="#FF4500" stroke="black" stroke-width="6"/>
<path fill-rule="evenodd" clip-rule="evenodd" d="M112.9 125H127.039C127.996 121.927 125.475 114.462 107.745 109.193V95.7579H117.392C119.739 95.7579 128.865 95.4942 128.865 86.0103V62.8274H134.34C135.73 62.5639 138.094 61.4047 136.426 58.8757C135.17 56.971 132.552 53.0537 130.557 50.0729C125.043 51.2113 119.583 53.3296 114.687 56.7731C98.2046 68.3646 91.824 93.9189 100.597 109.462C104.182 116.79 107.39 119.625 109.265 121.282C109.614 121.591 109.917 121.859 110.168 122.107C110.327 122.265 110.5 122.431 110.681 122.605C111.368 123.265 112.184 124.049 112.9 125Z" fill="#7A2100"/>
<path d="M122.483 110.398C130.174 118.02 134.5 128.361 134.5 139.15C134.5 149.499 130.945 157.301 125.993 164.291C123.54 167.754 120.731 171.036 117.867 174.306C117.417 174.821 116.965 175.335 116.513 175.849C114.067 178.632 111.602 181.437 109.207 184.45L122.483 110.398ZM122.483 110.398C114.792 102.778 104.367 98.5 93.5 98.5C82.6334 98.5 72.2074 102.777 64.5167 110.398M122.483 110.398H64.5167H122.483ZM64.5167 110.398C56.8252 118.02 52.5 128.361 52.5 139.15L64.5167 110.398ZM64.5167 110.398L52.5 139.15L64.5167 110.398ZM52.5 139.15C52.5 149.499 56.0547 157.3 61.0064 164.291L52.5 139.15ZM52.5 139.15L61.0064 164.291L52.5 139.15ZM61.0064 164.291C63.46 167.754 66.2685 171.036 69.1325 174.306L61.0064 164.291ZM61.0064 164.291L69.1325 174.306L61.0064 164.291ZM69.1325 174.306C69.5831 174.821 70.0349 175.335 70.4873 175.85L69.1325 174.306ZM69.1325 174.306L70.4873 175.85L69.1325 174.306ZM70.4873 175.85C72.9331 178.632 75.3978 181.437 77.793 184.45L70.4873 175.85ZM70.4873 175.85L77.793 184.45L70.4873 175.85ZM77.793 184.45C78.965 185.925 80.212 188.246 81.4998 191.081L77.793 184.45ZM77.793 184.45L81.4998 191.081L77.793 184.45ZM81.4998 191.081C82.688 193.696 83.8384 196.582 84.9525 199.376L81.4998 191.081ZM81.4998 191.081L84.9525 199.376L81.4998 191.081ZM84.9525 199.376C85.0311 199.574 85.1095 199.77 85.1878 199.966L84.9525 199.376ZM84.9525 199.376L85.1878 199.966L84.9525 199.376ZM85.1878 199.966C86.3556 202.894 87.5028 205.743 88.568 207.861L85.1878 199.966ZM85.1878 199.966L88.568 207.861L85.1878 199.966ZM88.568 207.861C89.0957 208.91 89.6661 209.908 90.2792 210.677L88.568 207.861ZM88.568 207.861L90.2792 210.677L88.568 207.861ZM90.2792 210.677C90.5865 211.063 90.9718 211.477 91.4438 211.811L90.2792 210.677ZM90.2792 210.677L91.4438 211.811L90.2792 210.677ZM91.4438 211.811C91.9152 212.145 92.6177 212.5 93.5 212.5L91.4438 211.811ZM91.4438 211.811L93.5 212.5L91.4438 211.811ZM93.5 212.5C94.3823 212.5 95.0848 212.145 95.5562 211.811L93.5 212.5ZM93.5 212.5L95.5562 211.811L93.5 212.5ZM95.5562 211.811C96.0282 211.477 96.4135 211.063 96.7208 210.677L95.5562 211.811ZM95.5562 211.811L96.7208 210.677L95.5562 211.811ZM96.7208 210.677C97.3339 209.908 97.9043 208.91 98.432 207.861L96.7208 210.677ZM96.7208 210.677L98.432 207.861L96.7208 210.677ZM98.432 207.861C99.4972 205.743 100.644 202.894 101.812 199.966L98.432 207.861ZM98.432 207.861L101.812 199.966L98.432 207.861ZM101.812 199.966C101.89 199.77 101.969 199.573 102.048 199.376L101.812 199.966ZM101.812 199.966L102.048 199.376L101.812 199.966ZM102.048 199.376C103.162 196.582 104.312 193.696 105.5 191.081L102.048 199.376ZM102.048 199.376L105.5 191.081L102.048 199.376ZM105.5 191.081C106.788 188.246 108.035 185.925 109.207 184.45L105.5 191.081ZM85.537 147.009C83.4297 144.921 82.25 142.093 82.25 139.15C82.25 136.207 83.4297 133.379 85.537 131.291C87.6447 129.202 90.5087 128.025 93.5 128.025C96.4913 128.025 99.3553 129.202 101.463 131.291C103.57 133.379 104.75 136.207 104.75 139.15C104.75 140.608 104.46 142.052 103.897 143.4C103.332 144.749 102.506 145.975 101.463 147.009C100.42 148.042 99.179 148.864 97.8126 149.425C96.4458 149.986 94.9807 150.275 93.5 150.275C90.5087 150.275 87.6447 149.098 85.537 147.009Z" fill="white"/>
<path d="M122.483 110.398C130.174 118.02 134.5 128.361 134.5 139.15C134.5 149.499 130.945 157.301 125.993 164.291C123.54 167.754 120.731 171.036 117.867 174.306C117.417 174.821 116.965 175.335 116.513 175.849C114.067 178.632 111.602 181.437 109.207 184.45M122.483 110.398L109.207 184.45M122.483 110.398C114.792 102.778 104.367 98.5 93.5 98.5C82.6334 98.5 72.2074 102.777 64.5167 110.398M122.483 110.398H64.5167M109.207 184.45C108.035 185.925 106.788 188.246 105.5 191.081M109.207 184.45L105.5 191.081M64.5167 110.398C56.8252 118.02 52.5 128.361 52.5 139.15M64.5167 110.398L52.5 139.15M52.5 139.15C52.5 149.499 56.0547 157.3 61.0064 164.291M52.5 139.15L61.0064 164.291M61.0064 164.291C63.46 167.754 66.2685 171.036 69.1325 174.306M61.0064 164.291L69.1325 174.306M69.1325 174.306C69.5831 174.821 70.0349 175.335 70.4873 175.85M69.1325 174.306L70.4873 175.85M70.4873 175.85C72.9331 178.632 75.3978 181.437 77.793 184.45M70.4873 175.85L77.793 184.45M77.793 184.45C78.965 185.925 80.212 188.246 81.4998 191.081M77.793 184.45L81.4998 191.081M81.4998 191.081C82.688 193.696 83.8384 196.582 84.9525 199.376M81.4998 191.081L84.9525 199.376M84.9525 199.376C85.0311 199.574 85.1095 199.77 85.1878 199.966M84.9525 199.376L85.1878 199.966M85.1878 199.966C86.3556 202.894 87.5028 205.743 88.568 207.861M85.1878 199.966L88.568 207.861M88.568 207.861C89.0957 208.91 89.6661 209.908 90.2792 210.677M88.568 207.861L90.2792 210.677M90.2792 210.677C90.5865 211.063 90.9718 211.477 91.4438 211.811M90.2792 210.677L91.4438 211.811M91.4438 211.811C91.9152 212.145 92.6177 212.5 93.5 212.5M91.4438 211.811L93.5 212.5M93.5 212.5C94.3823 212.5 95.0848 212.145 95.5562 211.811M93.5 212.5L95.5562 211.811M95.5562 211.811C96.0282 211.477 96.4135 211.063 96.7208 210.677M95.5562 211.811L96.7208 210.677M96.7208 210.677C97.3339 209.908 97.9043 208.91 98.432 207.861M96.7208 210.677L98.432 207.861M98.432 207.861C99.4972 205.743 100.644 202.894 101.812 199.966M98.432 207.861L101.812 199.966M101.812 199.966C101.89 199.77 101.969 199.573 102.048 199.376M101.812 199.966L102.048 199.376M102.048 199.376C103.162 196.582 104.312 193.696 105.5 191.081M102.048 199.376L105.5 191.081M85.537 147.009C83.4297 144.921 82.25 142.093 82.25 139.15C82.25 136.207 83.4297 133.379 85.537 131.291C87.6447 129.202 90.5087 128.025 93.5 128.025C96.4913 128.025 99.3553 129.202 101.463 131.291C103.57 133.379 104.75 136.207 104.75 139.15C104.75 140.608 104.46 142.052 103.897 143.4C103.332 144.749 102.506 145.975 101.463 147.009C100.42 148.042 99.179 148.864 97.8126 149.425C96.4458 149.986 94.9807 150.275 93.5 150.275C90.5087 150.275 87.6447 149.098 85.537 147.009Z" stroke="black" stroke-width="5"/>
<path d="M93.5 152.775C89.8532 152.775 86.3557 151.34 83.7773 148.785C81.1987 146.229 79.75 142.764 79.75 139.15C79.75 135.536 81.1987 132.071 83.7773 129.515C86.3557 126.96 89.8532 125.525 93.5 125.525C97.1468 125.525 100.644 126.96 103.223 129.515C105.801 132.071 107.25 135.536 107.25 139.15C107.25 140.939 106.894 142.711 106.203 144.364C105.512 146.017 104.5 147.519 103.223 148.785C101.946 150.049 100.43 151.053 98.7622 151.738C97.0936 152.423 95.3059 152.775 93.5 152.775ZM93.5 101C83.2892 101 73.4965 105.02 66.2764 112.174C59.0562 119.329 55 129.032 55 139.15C55 158.534 68.2072 168.373 79.75 182.895C85.2459 189.809 90.3636 210 93.5 210C96.6364 210 101.754 189.809 107.25 182.895C118.793 168.373 132 158.534 132 139.15C132 129.032 127.944 119.329 120.724 112.174C113.503 105.02 103.711 101 93.5 101Z" fill="#7D7D7D"/>
<mask id="path-10-outside-1_154_4" maskUnits="userSpaceOnUse" x="216" y="26" width="575" height="164" fill="black">
<rect fill="white" x="216" y="26" width="575" height="164"/>
<path d="M271.364 144.514V144.569C271.364 145.502 271.364 146.325 271.364 147.149C271.364 155.93 271.419 164.657 271.419 173.384C271.419 176.018 271.473 178.653 271.473 181.287C271.473 181.726 271.364 182.165 271.254 182.824C268.067 182.714 264.936 183.373 261.804 182.44C261.474 176.567 262.024 170.859 260.98 165.041C259.991 165.316 259.771 166.194 259.387 166.852C257.024 171.243 254.552 175.524 252.299 179.97C251.365 181.781 250.212 182.659 248.124 182.495C246.531 182.385 244.883 182.495 243.234 182.495C239.993 176.567 236.806 170.749 233.565 164.822C232.521 166.907 232.191 168.828 232.191 173.439C232.191 176.347 232.191 179.256 232.191 182.385C229.005 183.482 225.873 182.11 222.522 182.659C222.137 169.816 222.742 157.247 222.797 144.624C227.247 143.636 231.587 144.24 236.147 144.459C236.642 145.337 237.301 146.27 237.795 147.313C240.158 151.759 242.465 156.26 244.773 160.705C245.157 161.419 245.652 162.187 246.256 162.791C247.245 163.779 248.563 163.614 249.443 162.462C249.827 161.968 250.047 161.419 250.322 160.815C252.409 156.205 254.552 151.539 256.64 146.874C256.969 146.106 257.354 145.337 257.684 144.624C261.804 143.856 266.749 143.801 271.364 144.514Z"/>
<path d="M328.231 144.624V152.637C327.517 152.637 326.802 152.747 326.033 152.747C318.561 152.747 311.09 152.747 303.618 152.747C302.574 152.747 301.42 152.637 300.431 153.515V158.674C306.2 159.772 312.023 159.059 317.792 159.443C318.836 161.364 318.891 165.096 317.847 167.73C316.089 167.73 314.221 167.676 312.353 167.73C308.892 167.785 305.376 167.895 301.915 168.06C300.156 168.17 299.882 168.334 299.717 170.091C299.552 171.463 299.827 172.835 299.937 174.317C300.486 174.426 300.926 174.646 301.31 174.591C306.365 174.536 311.419 174.372 316.474 174.262C320.21 174.207 323.945 174.207 327.681 174.207C328.011 174.207 328.286 174.372 328.78 174.481C328.78 177.116 329.055 179.695 328.56 182.44C315.54 182.22 302.794 183.043 289.773 182.934C289.553 176.402 289.663 170.091 289.773 163.724C289.883 157.412 290.047 151.1 290.212 144.514C290.981 144.459 291.696 144.35 292.465 144.35C297.3 144.35 302.134 144.35 306.914 144.35C311.859 144.35 316.748 144.35 321.638 144.35C322.572 144.35 323.506 144.185 324.44 144.075C325.649 143.965 326.912 143.91 328.231 144.624Z"/>
<path d="M385.021 144.624V152.637C384.307 152.637 383.592 152.747 382.823 152.747C375.351 152.747 367.879 152.747 360.408 152.747C359.364 152.747 358.21 152.637 357.221 153.515V158.674C362.99 159.772 368.813 159.059 374.582 159.443C375.626 161.364 375.681 165.096 374.637 167.73C372.879 167.73 371.011 167.676 369.143 167.73C365.682 167.785 362.166 167.895 358.704 168.06C356.946 168.17 356.672 168.334 356.507 170.091C356.342 171.463 356.617 172.835 356.727 174.317C357.276 174.426 357.716 174.646 358.1 174.591C363.155 174.536 368.209 174.372 373.264 174.262C376.999 174.207 380.735 174.207 384.471 174.207C384.801 174.207 385.076 174.372 385.57 174.481C385.57 177.116 385.845 179.695 385.35 182.44C372.33 182.22 359.583 183.043 346.563 182.934C346.343 176.402 346.453 170.091 346.563 163.724C346.673 157.412 346.837 151.1 347.002 144.514C347.771 144.459 348.486 144.35 349.255 144.35C354.09 144.35 358.924 144.35 363.704 144.35C368.649 144.35 373.538 144.35 378.428 144.35C379.362 144.35 380.296 144.185 381.23 144.075C382.439 143.965 383.702 143.91 385.021 144.624Z"/>
<path d="M443.3 144.295V152.088C442.585 152.143 441.926 152.198 441.267 152.253C436.927 152.253 432.531 152.308 428.191 152.363C425.279 152.363 425.114 152.582 425.114 155.381C425.114 163.559 425.114 171.792 425.114 180.025C425.114 180.848 425.114 181.671 425.114 182.769C421.653 182.879 418.467 183.373 415.115 182.385C415.06 181.342 414.951 180.464 414.951 179.531C414.896 172.341 414.896 165.151 414.841 157.961C414.786 156.15 414.566 154.393 414.456 152.472C408.852 152.143 403.413 152.527 398.084 152.308C397.535 150.442 397.535 146.819 398.029 144.404C398.853 144.295 399.732 144.075 400.611 144.075C404.732 144.13 408.852 144.295 412.973 144.295C420.445 144.35 427.916 144.295 435.388 144.295C437.036 144.24 438.63 144.13 440.278 144.075C441.267 144.075 442.201 144.24 443.3 144.295Z"/>
<path d="M486.49 166.084C488.413 165.425 488.468 165.425 488.468 163.779C488.468 158.181 488.523 152.637 488.523 147.039C488.523 146.325 488.523 145.557 488.523 144.569C491.984 144.459 495.116 143.691 498.467 144.35C498.522 145.283 498.632 145.941 498.632 146.6C498.632 150.277 498.687 153.899 498.632 157.522C498.522 165.206 498.412 172.835 498.247 180.519C498.192 182.495 497.918 182.824 495.94 182.879C493.907 182.934 491.874 182.824 489.842 182.934C488.468 182.989 487.534 182.495 486.71 181.397C484.348 178.323 481.93 175.25 479.568 172.231C476.436 168.279 473.305 164.328 470.173 160.376C469.459 159.443 468.69 158.565 467.151 158.839C466.986 161.364 466.657 163.889 466.602 166.413C466.492 170.914 466.492 175.414 466.437 179.915C466.437 180.793 466.272 181.726 466.162 182.824C462.976 183.043 460.009 182.824 456.713 182.824C456.603 181.891 456.383 181.013 456.438 180.134C456.493 171.847 456.603 163.614 456.658 155.326C456.713 152.527 456.713 149.728 456.713 146.984C456.713 146.216 456.768 145.447 456.823 144.569C460.504 144.185 464.02 143.636 467.591 144.295C468.745 144.569 469.239 145.392 469.898 146.106C471.821 148.521 473.744 150.991 475.722 153.406C479.073 157.412 482.48 161.474 485.886 165.48C486.051 165.7 486.325 165.919 486.49 166.084Z"/>
<path d="M555.337 144.624V152.637C554.623 152.637 553.908 152.747 553.139 152.747C545.667 152.747 538.196 152.747 530.724 152.747C529.68 152.747 528.526 152.637 527.537 153.515V158.674C533.306 159.772 539.13 159.059 544.898 159.443C545.942 161.364 545.997 165.096 544.953 167.73C543.195 167.73 541.327 167.676 539.459 167.73C535.998 167.785 532.482 167.895 529.021 168.06C527.263 168.17 526.988 168.334 526.823 170.091C526.658 171.463 526.933 172.835 527.043 174.317C527.592 174.426 528.032 174.646 528.416 174.591C533.471 174.536 538.525 174.372 543.58 174.262C547.316 174.207 551.052 174.207 554.787 174.207C555.117 174.207 555.392 174.372 555.886 174.481C555.886 177.116 556.161 179.695 555.667 182.44C542.646 182.22 529.9 183.043 516.879 182.934C516.659 176.402 516.769 170.091 516.879 163.724C516.989 157.412 517.154 151.1 517.318 144.514C518.088 144.459 518.802 144.35 519.571 144.35C524.406 144.35 529.24 144.35 534.02 144.35C538.965 144.35 543.854 144.35 548.744 144.35C549.678 144.35 550.612 144.185 551.546 144.075C552.755 143.965 554.018 143.91 555.337 144.624Z"/>
<path d="M597.951 143.856H597.897C598.556 146.27 599.105 148.411 599.655 150.606C599.874 151.539 599.984 152.582 600.204 153.57C601.742 159.443 603.336 165.316 604.874 171.243C605.753 174.536 606.522 177.829 607.346 181.122C607.456 181.452 607.456 181.836 607.511 182.33C604.599 183.043 601.742 182.879 598.885 182.824C597.951 182.824 597.567 182.11 597.402 181.287C596.908 179.201 596.413 177.061 595.919 174.975C595.864 174.591 595.699 174.262 595.534 173.768C590.919 172.725 586.249 173.713 581.469 173.054L578.283 182.879C575.426 182.879 572.734 182.934 570.042 182.879C568.778 182.824 568.394 182.22 568.559 181.013C568.668 180.464 568.778 179.97 568.943 179.421C571.745 170.036 574.547 160.65 577.404 151.265C578.008 149.179 578.887 147.204 579.547 145.118C579.821 144.295 580.316 143.856 581.25 143.856C586.689 143.856 592.128 143.856 597.951 143.856ZM593.007 163.779C593.117 162.846 593.227 162.187 593.172 161.528C592.952 158.071 591.578 154.942 590.425 151.759C590.205 151.21 589.271 150.606 588.612 150.551C588.117 150.551 587.568 151.32 587.073 151.759C586.909 151.979 586.854 152.308 586.744 152.637C586.084 154.668 585.425 156.753 584.876 158.839C584.436 160.321 584.216 161.913 583.887 163.724C587.073 163.889 589.985 163.834 593.007 163.779Z"/>
<path d="M654.658 167.785C656.636 172.835 659.603 177.5 661.91 182.824C659.493 183.043 657.405 182.879 655.372 182.769C654.438 182.714 653.449 182.549 652.57 182.714C651.527 182.879 650.977 182.495 650.593 181.616C648.999 178.049 647.406 174.536 645.813 171.024C645.648 170.585 645.428 170.2 645.263 169.761C644.879 168.718 644.274 168.06 643.066 168.005C641.527 167.95 639.989 167.676 638.396 167.676C636.748 167.676 635.045 167.95 633.341 168.06C632.407 168.993 632.298 170.091 632.298 171.298C632.352 174.372 632.298 177.445 632.298 180.574C632.298 181.232 632.243 181.891 632.188 182.549C630.32 183.043 625.65 183.153 622.683 182.769C622.628 182.275 622.463 181.781 622.518 181.287C622.518 173.384 622.573 165.48 622.628 157.577C622.683 154.503 622.628 151.43 622.628 148.301C622.628 147.752 622.573 147.204 622.573 146.71C622.628 144.624 622.738 144.514 624.881 144.404C625.43 144.349 625.979 144.35 626.529 144.35C631.034 144.24 635.539 143.965 640.044 144.02C644.22 144.13 648.45 144.24 652.57 144.898C657.46 145.667 660.921 148.795 662.02 153.68C663.009 157.906 661.69 162.132 657.46 165.316C656.526 166.029 655.317 166.523 654.658 167.785ZM632.792 152.472C632.847 153.625 632.957 154.613 633.012 155.601C633.122 156.644 633.232 157.687 633.396 158.729C638.231 158.729 642.846 158.729 647.516 158.674C648.725 158.674 649.988 158.4 651.142 157.961C653.065 157.302 653.449 155.766 652.186 154.174C651.252 152.912 650.043 152.253 648.395 152.253C646.637 152.198 644.824 152.253 643.066 152.088C639.714 151.704 636.418 151.869 632.792 152.472Z"/>
<path d="M727.507 144.514V144.569C727.507 145.502 727.507 146.325 727.507 147.149C727.507 155.93 727.562 164.657 727.562 173.384C727.562 176.018 727.617 178.653 727.617 181.287C727.617 181.726 727.507 182.165 727.397 182.824C724.211 182.714 721.079 183.373 717.948 182.44C717.618 176.567 718.167 170.859 717.124 165.041C716.135 165.316 715.915 166.194 715.53 166.852C713.168 171.243 710.696 175.524 708.443 179.97C707.509 181.781 706.355 182.659 704.268 182.495C702.674 182.385 701.026 182.495 699.378 182.495C696.137 176.567 692.95 170.749 689.709 164.822C688.665 166.907 688.335 168.828 688.335 173.439C688.335 176.347 688.335 179.256 688.335 182.385C685.149 183.482 682.017 182.11 678.666 182.659C678.281 169.816 678.885 157.247 678.94 144.624C683.39 143.636 687.731 144.24 692.291 144.459C692.785 145.337 693.444 146.27 693.939 147.313C696.301 151.759 698.609 156.26 700.916 160.705C701.301 161.419 701.795 162.187 702.4 162.791C703.389 163.779 704.707 163.614 705.586 162.462C705.971 161.968 706.191 161.419 706.465 160.815C708.553 156.205 710.696 151.539 712.783 146.874C713.113 146.106 713.498 145.337 713.827 144.624C717.948 143.856 722.892 143.801 727.507 144.514Z"/>
<path d="M784.375 144.624V152.637C783.66 152.637 782.946 152.747 782.177 152.747C774.705 152.747 767.233 152.747 759.761 152.747C758.717 152.747 757.564 152.637 756.575 153.515V158.674C762.344 159.772 768.167 159.059 773.936 159.443C774.98 161.364 775.035 165.096 773.991 167.73C772.233 167.73 770.365 167.676 768.497 167.73C765.036 167.785 761.519 167.895 758.058 168.06C756.3 168.17 756.025 168.334 755.861 170.091C755.696 171.463 755.971 172.835 756.08 174.317C756.63 174.426 757.069 174.646 757.454 174.591C762.508 174.536 767.563 174.372 772.617 174.262C776.353 174.207 780.089 174.207 783.825 174.207C784.155 174.207 784.429 174.372 784.924 174.481C784.924 177.116 785.199 179.695 784.704 182.44C771.683 182.22 758.937 183.043 745.917 182.934C745.697 176.402 745.807 170.091 745.917 163.724C746.026 157.412 746.191 151.1 746.356 144.514C747.125 144.459 747.839 144.35 748.609 144.35C753.443 144.35 758.278 144.35 763.058 144.35C768.002 144.35 772.892 144.35 777.782 144.35C778.716 144.35 779.65 144.185 780.584 144.075C781.792 143.965 783.056 143.91 784.375 144.624Z"/>
<path d="M222 32V114.327H283.987V70.6087H292.191V114.327H354.178V70.6087H362.382V114.327H424.369L424.369 32H222Z"/>
<path d="M579.331 32V114.327H641.318V70.6087H649.522V114.327H711.509V70.6087H719.713V114.327H781.7L781.701 32H579.331Z"/>
<path d="M436.221 32H567.486V114.327H505.499V70.6087H498.207V114.327H436.22L436.221 32Z"/>
</mask>
<path d="M271.364 144.514V144.569C271.364 145.502 271.364 146.325 271.364 147.149C271.364 155.93 271.419 164.657 271.419 173.384C271.419 176.018 271.473 178.653 271.473 181.287C271.473 181.726 271.364 182.165 271.254 182.824C268.067 182.714 264.936 183.373 261.804 182.44C261.474 176.567 262.024 170.859 260.98 165.041C259.991 165.316 259.771 166.194 259.387 166.852C257.024 171.243 254.552 175.524 252.299 179.97C251.365 181.781 250.212 182.659 248.124 182.495C246.531 182.385 244.883 182.495 243.234 182.495C239.993 176.567 236.806 170.749 233.565 164.822C232.521 166.907 232.191 168.828 232.191 173.439C232.191 176.347 232.191 179.256 232.191 182.385C229.005 183.482 225.873 182.11 222.522 182.659C222.137 169.816 222.742 157.247 222.797 144.624C227.247 143.636 231.587 144.24 236.147 144.459C236.642 145.337 237.301 146.27 237.795 147.313C240.158 151.759 242.465 156.26 244.773 160.705C245.157 161.419 245.652 162.187 246.256 162.791C247.245 163.779 248.563 163.614 249.443 162.462C249.827 161.968 250.047 161.419 250.322 160.815C252.409 156.205 254.552 151.539 256.64 146.874C256.969 146.106 257.354 145.337 257.684 144.624C261.804 143.856 266.749 143.801 271.364 144.514Z" fill="white"/>
<path d="M328.231 144.624V152.637C327.517 152.637 326.802 152.747 326.033 152.747C318.561 152.747 311.09 152.747 303.618 152.747C302.574 152.747 301.42 152.637 300.431 153.515V158.674C306.2 159.772 312.023 159.059 317.792 159.443C318.836 161.364 318.891 165.096 317.847 167.73C316.089 167.73 314.221 167.676 312.353 167.73C308.892 167.785 305.376 167.895 301.915 168.06C300.156 168.17 299.882 168.334 299.717 170.091C299.552 171.463 299.827 172.835 299.937 174.317C300.486 174.426 300.926 174.646 301.31 174.591C306.365 174.536 311.419 174.372 316.474 174.262C320.21 174.207 323.945 174.207 327.681 174.207C328.011 174.207 328.286 174.372 328.78 174.481C328.78 177.116 329.055 179.695 328.56 182.44C315.54 182.22 302.794 183.043 289.773 182.934C289.553 176.402 289.663 170.091 289.773 163.724C289.883 157.412 290.047 151.1 290.212 144.514C290.981 144.459 291.696 144.35 292.465 144.35C297.3 144.35 302.134 144.35 306.914 144.35C311.859 144.35 316.748 144.35 321.638 144.35C322.572 144.35 323.506 144.185 324.44 144.075C325.649 143.965 326.912 143.91 328.231 144.624Z" fill="white"/>
<path d="M385.021 144.624V152.637C384.307 152.637 383.592 152.747 382.823 152.747C375.351 152.747 367.879 152.747 360.408 152.747C359.364 152.747 358.21 152.637 357.221 153.515V158.674C362.99 159.772 368.813 159.059 374.582 159.443C375.626 161.364 375.681 165.096 374.637 167.73C372.879 167.73 371.011 167.676 369.143 167.73C365.682 167.785 362.166 167.895 358.704 168.06C356.946 168.17 356.672 168.334 356.507 170.091C356.342 171.463 356.617 172.835 356.727 174.317C357.276 174.426 357.716 174.646 358.1 174.591C363.155 174.536 368.209 174.372 373.264 174.262C376.999 174.207 380.735 174.207 384.471 174.207C384.801 174.207 385.076 174.372 385.57 174.481C385.57 177.116 385.845 179.695 385.35 182.44C372.33 182.22 359.583 183.043 346.563 182.934C346.343 176.402 346.453 170.091 346.563 163.724C346.673 157.412 346.837 151.1 347.002 144.514C347.771 144.459 348.486 144.35 349.255 144.35C354.09 144.35 358.924 144.35 363.704 144.35C368.649 144.35 373.538 144.35 378.428 144.35C379.362 144.35 380.296 144.185 381.23 144.075C382.439 143.965 383.702 143.91 385.021 144.624Z" fill="white"/>
<path d="M443.3 144.295V152.088C442.585 152.143 441.926 152.198 441.267 152.253C436.927 152.253 432.531 152.308 428.191 152.363C425.279 152.363 425.114 152.582 425.114 155.381C425.114 163.559 425.114 171.792 425.114 180.025C425.114 180.848 425.114 181.671 425.114 182.769C421.653 182.879 418.467 183.373 415.115 182.385C415.06 181.342 414.951 180.464 414.951 179.531C414.896 172.341 414.896 165.151 414.841 157.961C414.786 156.15 414.566 154.393 414.456 152.472C408.852 152.143 403.413 152.527 398.084 152.308C397.535 150.442 397.535 146.819 398.029 144.404C398.853 144.295 399.732 144.075 400.611 144.075C404.732 144.13 408.852 144.295 412.973 144.295C420.445 144.35 427.916 144.295 435.388 144.295C437.036 144.24 438.63 144.13 440.278 144.075C441.267 144.075 442.201 144.24 443.3 144.295Z" fill="white"/>
<path d="M486.49 166.084C488.413 165.425 488.468 165.425 488.468 163.779C488.468 158.181 488.523 152.637 488.523 147.039C488.523 146.325 488.523 145.557 488.523 144.569C491.984 144.459 495.116 143.691 498.467 144.35C498.522 145.283 498.632 145.941 498.632 146.6C498.632 150.277 498.687 153.899 498.632 157.522C498.522 165.206 498.412 172.835 498.247 180.519C498.192 182.495 497.918 182.824 495.94 182.879C493.907 182.934 491.874 182.824 489.842 182.934C488.468 182.989 487.534 182.495 486.71 181.397C484.348 178.323 481.93 175.25 479.568 172.231C476.436 168.279 473.305 164.328 470.173 160.376C469.459 159.443 468.69 158.565 467.151 158.839C466.986 161.364 466.657 163.889 466.602 166.413C466.492 170.914 466.492 175.414 466.437 179.915C466.437 180.793 466.272 181.726 466.162 182.824C462.976 183.043 460.009 182.824 456.713 182.824C456.603 181.891 456.383 181.013 456.438 180.134C456.493 171.847 456.603 163.614 456.658 155.326C456.713 152.527 456.713 149.728 456.713 146.984C456.713 146.216 456.768 145.447 456.823 144.569C460.504 144.185 464.02 143.636 467.591 144.295C468.745 144.569 469.239 145.392 469.898 146.106C471.821 148.521 473.744 150.991 475.722 153.406C479.073 157.412 482.48 161.474 485.886 165.48C486.051 165.7 486.325 165.919 486.49 166.084Z" fill="white"/>
<path d="M555.337 144.624V152.637C554.623 152.637 553.908 152.747 553.139 152.747C545.667 152.747 538.196 152.747 530.724 152.747C529.68 152.747 528.526 152.637 527.537 153.515V158.674C533.306 159.772 539.13 159.059 544.898 159.443C545.942 161.364 545.997 165.096 544.953 167.73C543.195 167.73 541.327 167.676 539.459 167.73C535.998 167.785 532.482 167.895 529.021 168.06C527.263 168.17 526.988 168.334 526.823 170.091C526.658 171.463 526.933 172.835 527.043 174.317C527.592 174.426 528.032 174.646 528.416 174.591C533.471 174.536 538.525 174.372 543.58 174.262C547.316 174.207 551.052 174.207 554.787 174.207C555.117 174.207 555.392 174.372 555.886 174.481C555.886 177.116 556.161 179.695 555.667 182.44C542.646 182.22 529.9 183.043 516.879 182.934C516.659 176.402 516.769 170.091 516.879 163.724C516.989 157.412 517.154 151.1 517.318 144.514C518.088 144.459 518.802 144.35 519.571 144.35C524.406 144.35 529.24 144.35 534.02 144.35C538.965 144.35 543.854 144.35 548.744 144.35C549.678 144.35 550.612 144.185 551.546 144.075C552.755 143.965 554.018 143.91 555.337 144.624Z" fill="white"/>
<path d="M597.951 143.856H597.897C598.556 146.27 599.105 148.411 599.655 150.606C599.874 151.539 599.984 152.582 600.204 153.57C601.742 159.443 603.336 165.316 604.874 171.243C605.753 174.536 606.522 177.829 607.346 181.122C607.456 181.452 607.456 181.836 607.511 182.33C604.599 183.043 601.742 182.879 598.885 182.824C597.951 182.824 597.567 182.11 597.402 181.287C596.908 179.201 596.413 177.061 595.919 174.975C595.864 174.591 595.699 174.262 595.534 173.768C590.919 172.725 586.249 173.713 581.469 173.054L578.283 182.879C575.426 182.879 572.734 182.934 570.042 182.879C568.778 182.824 568.394 182.22 568.559 181.013C568.668 180.464 568.778 179.97 568.943 179.421C571.745 170.036 574.547 160.65 577.404 151.265C578.008 149.179 578.887 147.204 579.547 145.118C579.821 144.295 580.316 143.856 581.25 143.856C586.689 143.856 592.128 143.856 597.951 143.856ZM593.007 163.779C593.117 162.846 593.227 162.187 593.172 161.528C592.952 158.071 591.578 154.942 590.425 151.759C590.205 151.21 589.271 150.606 588.612 150.551C588.117 150.551 587.568 151.32 587.073 151.759C586.909 151.979 586.854 152.308 586.744 152.637C586.084 154.668 585.425 156.753 584.876 158.839C584.436 160.321 584.216 161.913 583.887 163.724C587.073 163.889 589.985 163.834 593.007 163.779Z" fill="white"/>
<path d="M654.658 167.785C656.636 172.835 659.603 177.5 661.91 182.824C659.493 183.043 657.405 182.879 655.372 182.769C654.438 182.714 653.449 182.549 652.57 182.714C651.527 182.879 650.977 182.495 650.593 181.616C648.999 178.049 647.406 174.536 645.813 171.024C645.648 170.585 645.428 170.2 645.263 169.761C644.879 168.718 644.274 168.06 643.066 168.005C641.527 167.95 639.989 167.676 638.396 167.676C636.748 167.676 635.045 167.95 633.341 168.06C632.407 168.993 632.298 170.091 632.298 171.298C632.352 174.372 632.298 177.445 632.298 180.574C632.298 181.232 632.243 181.891 632.188 182.549C630.32 183.043 625.65 183.153 622.683 182.769C622.628 182.275 622.463 181.781 622.518 181.287C622.518 173.384 622.573 165.48 622.628 157.577C622.683 154.503 622.628 151.43 622.628 148.301C622.628 147.752 622.573 147.204 622.573 146.71C622.628 144.624 622.738 144.514 624.881 144.404C625.43 144.349 625.979 144.35 626.529 144.35C631.034 144.24 635.539 143.965 640.044 144.02C644.22 144.13 648.45 144.24 652.57 144.898C657.46 145.667 660.921 148.795 662.02 153.68C663.009 157.906 661.69 162.132 657.46 165.316C656.526 166.029 655.317 166.523 654.658 167.785ZM632.792 152.472C632.847 153.625 632.957 154.613 633.012 155.601C633.122 156.644 633.232 157.687 633.396 158.729C638.231 158.729 642.846 158.729 647.516 158.674C648.725 158.674 649.988 158.4 651.142 157.961C653.065 157.302 653.449 155.766 652.186 154.174C651.252 152.912 650.043 152.253 648.395 152.253C646.637 152.198 644.824 152.253 643.066 152.088C639.714 151.704 636.418 151.869 632.792 152.472Z" fill="white"/>
<path d="M727.507 144.514V144.569C727.507 145.502 727.507 146.325 727.507 147.149C727.507 155.93 727.562 164.657 727.562 173.384C727.562 176.018 727.617 178.653 727.617 181.287C727.617 181.726 727.507 182.165 727.397 182.824C724.211 182.714 721.079 183.373 717.948 182.44C717.618 176.567 718.167 170.859 717.124 165.041C716.135 165.316 715.915 166.194 715.53 166.852C713.168 171.243 710.696 175.524 708.443 179.97C707.509 181.781 706.355 182.659 704.268 182.495C702.674 182.385 701.026 182.495 699.378 182.495C696.137 176.567 692.95 170.749 689.709 164.822C688.665 166.907 688.335 168.828 688.335 173.439C688.335 176.347 688.335 179.256 688.335 182.385C685.149 183.482 682.017 182.11 678.666 182.659C678.281 169.816 678.885 157.247 678.94 144.624C683.39 143.636 687.731 144.24 692.291 144.459C692.785 145.337 693.444 146.27 693.939 147.313C696.301 151.759 698.609 156.26 700.916 160.705C701.301 161.419 701.795 162.187 702.4 162.791C703.389 163.779 704.707 163.614 705.586 162.462C705.971 161.968 706.191 161.419 706.465 160.815C708.553 156.205 710.696 151.539 712.783 146.874C713.113 146.106 713.498 145.337 713.827 144.624C717.948 143.856 722.892 143.801 727.507 144.514Z" fill="white"/>
<path d="M784.375 144.624V152.637C783.66 152.637 782.946 152.747 782.177 152.747C774.705 152.747 767.233 152.747 759.761 152.747C758.717 152.747 757.564 152.637 756.575 153.515V158.674C762.344 159.772 768.167 159.059 773.936 159.443C774.98 161.364 775.035 165.096 773.991 167.73C772.233 167.73 770.365 167.676 768.497 167.73C765.036 167.785 761.519 167.895 758.058 168.06C756.3 168.17 756.025 168.334 755.861 170.091C755.696 171.463 755.971 172.835 756.08 174.317C756.63 174.426 757.069 174.646 757.454 174.591C762.508 174.536 767.563 174.372 772.617 174.262C776.353 174.207 780.089 174.207 783.825 174.207C784.155 174.207 784.429 174.372 784.924 174.481C784.924 177.116 785.199 179.695 784.704 182.44C771.683 182.22 758.937 183.043 745.917 182.934C745.697 176.402 745.807 170.091 745.917 163.724C746.026 157.412 746.191 151.1 746.356 144.514C747.125 144.459 747.839 144.35 748.609 144.35C753.443 144.35 758.278 144.35 763.058 144.35C768.002 144.35 772.892 144.35 777.782 144.35C778.716 144.35 779.65 144.185 780.584 144.075C781.792 143.965 783.056 143.91 784.375 144.624Z" fill="white"/>
<path d="M222 32V114.327H283.987V70.6087H292.191V114.327H354.178V70.6087H362.382V114.327H424.369L424.369 32H222Z" fill="white"/>
<path d="M579.331 32V114.327H641.318V70.6087H649.522V114.327H711.509V70.6087H719.713V114.327H781.7L781.701 32H579.331Z" fill="white"/>
<path d="M436.221 32H567.486V114.327H505.499V70.6087H498.207V114.327H436.22L436.221 32Z" fill="white"/>
<path d="M271.364 144.514V144.569C271.364 145.502 271.364 146.325 271.364 147.149C271.364 155.93 271.419 164.657 271.419 173.384C271.419 176.018 271.473 178.653 271.473 181.287C271.473 181.726 271.364 182.165 271.254 182.824C268.067 182.714 264.936 183.373 261.804 182.44C261.474 176.567 262.024 170.859 260.98 165.041C259.991 165.316 259.771 166.194 259.387 166.852C257.024 171.243 254.552 175.524 252.299 179.97C251.365 181.781 250.212 182.659 248.124 182.495C246.531 182.385 244.883 182.495 243.234 182.495C239.993 176.567 236.806 170.749 233.565 164.822C232.521 166.907 232.191 168.828 232.191 173.439C232.191 176.347 232.191 179.256 232.191 182.385C229.005 183.482 225.873 182.11 222.522 182.659C222.137 169.816 222.742 157.247 222.797 144.624C227.247 143.636 231.587 144.24 236.147 144.459C236.642 145.337 237.301 146.27 237.795 147.313C240.158 151.759 242.465 156.26 244.773 160.705C245.157 161.419 245.652 162.187 246.256 162.791C247.245 163.779 248.563 163.614 249.443 162.462C249.827 161.968 250.047 161.419 250.322 160.815C252.409 156.205 254.552 151.539 256.64 146.874C256.969 146.106 257.354 145.337 257.684 144.624C261.804 143.856 266.749 143.801 271.364 144.514Z" stroke="black" stroke-width="12" mask="url(#path-10-outside-1_154_4)"/>
<path d="M328.231 144.624V152.637C327.517 152.637 326.802 152.747 326.033 152.747C318.561 152.747 311.09 152.747 303.618 152.747C302.574 152.747 301.42 152.637 300.431 153.515V158.674C306.2 159.772 312.023 159.059 317.792 159.443C318.836 161.364 318.891 165.096 317.847 167.73C316.089 167.73 314.221 167.676 312.353 167.73C308.892 167.785 305.376 167.895 301.915 168.06C300.156 168.17 299.882 168.334 299.717 170.091C299.552 171.463 299.827 172.835 299.937 174.317C300.486 174.426 300.926 174.646 301.31 174.591C306.365 174.536 311.419 174.372 316.474 174.262C320.21 174.207 323.945 174.207 327.681 174.207C328.011 174.207 328.286 174.372 328.78 174.481C328.78 177.116 329.055 179.695 328.56 182.44C315.54 182.22 302.794 183.043 289.773 182.934C289.553 176.402 289.663 170.091 289.773 163.724C289.883 157.412 290.047 151.1 290.212 144.514C290.981 144.459 291.696 144.35 292.465 144.35C297.3 144.35 302.134 144.35 306.914 144.35C311.859 144.35 316.748 144.35 321.638 144.35C322.572 144.35 323.506 144.185 324.44 144.075C325.649 143.965 326.912 143.91 328.231 144.624Z" stroke="black" stroke-width="12" mask="url(#path-10-outside-1_154_4)"/>
<path d="M385.021 144.624V152.637C384.307 152.637 383.592 152.747 382.823 152.747C375.351 152.747 367.879 152.747 360.408 152.747C359.364 152.747 358.21 152.637 357.221 153.515V158.674C362.99 159.772 368.813 159.059 374.582 159.443C375.626 161.364 375.681 165.096 374.637 167.73C372.879 167.73 371.011 167.676 369.143 167.73C365.682 167.785 362.166 167.895 358.704 168.06C356.946 168.17 356.672 168.334 356.507 170.091C356.342 171.463 356.617 172.835 356.727 174.317C357.276 174.426 357.716 174.646 358.1 174.591C363.155 174.536 368.209 174.372 373.264 174.262C376.999 174.207 380.735 174.207 384.471 174.207C384.801 174.207 385.076 174.372 385.57 174.481C385.57 177.116 385.845 179.695 385.35 182.44C372.33 182.22 359.583 183.043 346.563 182.934C346.343 176.402 346.453 170.091 346.563 163.724C346.673 157.412 346.837 151.1 347.002 144.514C347.771 144.459 348.486 144.35 349.255 144.35C354.09 144.35 358.924 144.35 363.704 144.35C368.649 144.35 373.538 144.35 378.428 144.35C379.362 144.35 380.296 144.185 381.23 144.075C382.439 143.965 383.702 143.91 385.021 144.624Z" stroke="black" stroke-width="12" mask="url(#path-10-outside-1_154_4)"/>
<path d="M443.3 144.295V152.088C442.585 152.143 441.926 152.198 441.267 152.253C436.927 152.253 432.531 152.308 428.191 152.363C425.279 152.363 425.114 152.582 425.114 155.381C425.114 163.559 425.114 171.792 425.114 180.025C425.114 180.848 425.114 181.671 425.114 182.769C421.653 182.879 418.467 183.373 415.115 182.385C415.06 181.342 414.951 180.464 414.951 179.531C414.896 172.341 414.896 165.151 414.841 157.961C414.786 156.15 414.566 154.393 414.456 152.472C408.852 152.143 403.413 152.527 398.084 152.308C397.535 150.442 397.535 146.819 398.029 144.404C398.853 144.295 399.732 144.075 400.611 144.075C404.732 144.13 408.852 144.295 412.973 144.295C420.445 144.35 427.916 144.295 435.388 144.295C437.036 144.24 438.63 144.13 440.278 144.075C441.267 144.075 442.201 144.24 443.3 144.295Z" stroke="black" stroke-width="12" mask="url(#path-10-outside-1_154_4)"/>
<path d="M486.49 166.084C488.413 165.425 488.468 165.425 488.468 163.779C488.468 158.181 488.523 152.637 488.523 147.039C488.523 146.325 488.523 145.557 488.523 144.569C491.984 144.459 495.116 143.691 498.467 144.35C498.522 145.283 498.632 145.941 498.632 146.6C498.632 150.277 498.687 153.899 498.632 157.522C498.522 165.206 498.412 172.835 498.247 180.519C498.192 182.495 497.918 182.824 495.94 182.879C493.907 182.934 491.874 182.824 489.842 182.934C488.468 182.989 487.534 182.495 486.71 181.397C484.348 178.323 481.93 175.25 479.568 172.231C476.436 168.279 473.305 164.328 470.173 160.376C469.459 159.443 468.69 158.565 467.151 158.839C466.986 161.364 466.657 163.889 466.602 166.413C466.492 170.914 466.492 175.414 466.437 179.915C466.437 180.793 466.272 181.726 466.162 182.824C462.976 183.043 460.009 182.824 456.713 182.824C456.603 181.891 456.383 181.013 456.438 180.134C456.493 171.847 456.603 163.614 456.658 155.326C456.713 152.527 456.713 149.728 456.713 146.984C456.713 146.216 456.768 145.447 456.823 144.569C460.504 144.185 464.02 143.636 467.591 144.295C468.745 144.569 469.239 145.392 469.898 146.106C471.821 148.521 473.744 150.991 475.722 153.406C479.073 157.412 482.48 161.474 485.886 165.48C486.051 165.7 486.325 165.919 486.49 166.084Z" stroke="black" stroke-width="12" mask="url(#path-10-outside-1_154_4)"/>
<path d="M555.337 144.624V152.637C554.623 152.637 553.908 152.747 553.139 152.747C545.667 152.747 538.196 152.747 530.724 152.747C529.68 152.747 528.526 152.637 527.537 153.515V158.674C533.306 159.772 539.13 159.059 544.898 159.443C545.942 161.364 545.997 165.096 544.953 167.73C543.195 167.73 541.327 167.676 539.459 167.73C535.998 167.785 532.482 167.895 529.021 168.06C527.263 168.17 526.988 168.334 526.823 170.091C526.658 171.463 526.933 172.835 527.043 174.317C527.592 174.426 528.032 174.646 528.416 174.591C533.471 174.536 538.525 174.372 543.58 174.262C547.316 174.207 551.052 174.207 554.787 174.207C555.117 174.207 555.392 174.372 555.886 174.481C555.886 177.116 556.161 179.695 555.667 182.44C542.646 182.22 529.9 183.043 516.879 182.934C516.659 176.402 516.769 170.091 516.879 163.724C516.989 157.412 517.154 151.1 517.318 144.514C518.088 144.459 518.802 144.35 519.571 144.35C524.406 144.35 529.24 144.35 534.02 144.35C538.965 144.35 543.854 144.35 548.744 144.35C549.678 144.35 550.612 144.185 551.546 144.075C552.755 143.965 554.018 143.91 555.337 144.624Z" stroke="black" stroke-width="12" mask="url(#path-10-outside-1_154_4)"/>
<path d="M597.951 143.856H597.897C598.556 146.27 599.105 148.411 599.655 150.606C599.874 151.539 599.984 152.582 600.204 153.57C601.742 159.443 603.336 165.316 604.874 171.243C605.753 174.536 606.522 177.829 607.346 181.122C607.456 181.452 607.456 181.836 607.511 182.33C604.599 183.043 601.742 182.879 598.885 182.824C597.951 182.824 597.567 182.11 597.402 181.287C596.908 179.201 596.413 177.061 595.919 174.975C595.864 174.591 595.699 174.262 595.534 173.768C590.919 172.725 586.249 173.713 581.469 173.054L578.283 182.879C575.426 182.879 572.734 182.934 570.042 182.879C568.778 182.824 568.394 182.22 568.559 181.013C568.668 180.464 568.778 179.97 568.943 179.421C571.745 170.036 574.547 160.65 577.404 151.265C578.008 149.179 578.887 147.204 579.547 145.118C579.821 144.295 580.316 143.856 581.25 143.856C586.689 143.856 592.128 143.856 597.951 143.856ZM593.007 163.779C593.117 162.846 593.227 162.187 593.172 161.528C592.952 158.071 591.578 154.942 590.425 151.759C590.205 151.21 589.271 150.606 588.612 150.551C588.117 150.551 587.568 151.32 587.073 151.759C586.909 151.979 586.854 152.308 586.744 152.637C586.084 154.668 585.425 156.753 584.876 158.839C584.436 160.321 584.216 161.913 583.887 163.724C587.073 163.889 589.985 163.834 593.007 163.779Z" stroke="black" stroke-width="12" mask="url(#path-10-outside-1_154_4)"/>
<path d="M654.658 167.785C656.636 172.835 659.603 177.5 661.91 182.824C659.493 183.043 657.405 182.879 655.372 182.769C654.438 182.714 653.449 182.549 652.57 182.714C651.527 182.879 650.977 182.495 650.593 181.616C648.999 178.049 647.406 174.536 645.813 171.024C645.648 170.585 645.428 170.2 645.263 169.761C644.879 168.718 644.274 168.06 643.066 168.005C641.527 167.95 639.989 167.676 638.396 167.676C636.748 167.676 635.045 167.95 633.341 168.06C632.407 168.993 632.298 170.091 632.298 171.298C632.352 174.372 632.298 177.445 632.298 180.574C632.298 181.232 632.243 181.891 632.188 182.549C630.32 183.043 625.65 183.153 622.683 182.769C622.628 182.275 622.463 181.781 622.518 181.287C622.518 173.384 622.573 165.48 622.628 157.577C622.683 154.503 622.628 151.43 622.628 148.301C622.628 147.752 622.573 147.204 622.573 146.71C622.628 144.624 622.738 144.514 624.881 144.404C625.43 144.349 625.979 144.35 626.529 144.35C631.034 144.24 635.539 143.965 640.044 144.02C644.22 144.13 648.45 144.24 652.57 144.898C657.46 145.667 660.921 148.795 662.02 153.68C663.009 157.906 661.69 162.132 657.46 165.316C656.526 166.029 655.317 166.523 654.658 167.785ZM632.792 152.472C632.847 153.625 632.957 154.613 633.012 155.601C633.122 156.644 633.232 157.687 633.396 158.729C638.231 158.729 642.846 158.729 647.516 158.674C648.725 158.674 649.988 158.4 651.142 157.961C653.065 157.302 653.449 155.766 652.186 154.174C651.252 152.912 650.043 152.253 648.395 152.253C646.637 152.198 644.824 152.253 643.066 152.088C639.714 151.704 636.418 151.869 632.792 152.472Z" stroke="black" stroke-width="12" mask="url(#path-10-outside-1_154_4)"/>
<path d="M727.507 144.514V144.569C727.507 145.502 727.507 146.325 727.507 147.149C727.507 155.93 727.562 164.657 727.562 173.384C727.562 176.018 727.617 178.653 727.617 181.287C727.617 181.726 727.507 182.165 727.397 182.824C724.211 182.714 721.079 183.373 717.948 182.44C717.618 176.567 718.167 170.859 717.124 165.041C716.135 165.316 715.915 166.194 715.53 166.852C713.168 171.243 710.696 175.524 708.443 179.97C707.509 181.781 706.355 182.659 704.268 182.495C702.674 182.385 701.026 182.495 699.378 182.495C696.137 176.567 692.95 170.749 689.709 164.822C688.665 166.907 688.335 168.828 688.335 173.439C688.335 176.347 688.335 179.256 688.335 182.385C685.149 183.482 682.017 182.11 678.666 182.659C678.281 169.816 678.885 157.247 678.94 144.624C683.39 143.636 687.731 144.24 692.291 144.459C692.785 145.337 693.444 146.27 693.939 147.313C696.301 151.759 698.609 156.26 700.916 160.705C701.301 161.419 701.795 162.187 702.4 162.791C703.389 163.779 704.707 163.614 705.586 162.462C705.971 161.968 706.191 161.419 706.465 160.815C708.553 156.205 710.696 151.539 712.783 146.874C713.113 146.106 713.498 145.337 713.827 144.624C717.948 143.856 722.892 143.801 727.507 144.514Z" stroke="black" stroke-width="12" mask="url(#path-10-outside-1_154_4)"/>
<path d="M784.375 144.624V152.637C783.66 152.637 782.946 152.747 782.177 152.747C774.705 152.747 767.233 152.747 759.761 152.747C758.717 152.747 757.564 152.637 756.575 153.515V158.674C762.344 159.772 768.167 159.059 773.936 159.443C774.98 161.364 775.035 165.096 773.991 167.73C772.233 167.73 770.365 167.676 768.497 167.73C765.036 167.785 761.519 167.895 758.058 168.06C756.3 168.17 756.025 168.334 755.861 170.091C755.696 171.463 755.971 172.835 756.08 174.317C756.63 174.426 757.069 174.646 757.454 174.591C762.508 174.536 767.563 174.372 772.617 174.262C776.353 174.207 780.089 174.207 783.825 174.207C784.155 174.207 784.429 174.372 784.924 174.481C784.924 177.116 785.199 179.695 784.704 182.44C771.683 182.22 758.937 183.043 745.917 182.934C745.697 176.402 745.807 170.091 745.917 163.724C746.026 157.412 746.191 151.1 746.356 144.514C747.125 144.459 747.839 144.35 748.609 144.35C753.443 144.35 758.278 144.35 763.058 144.35C768.002 144.35 772.892 144.35 777.782 144.35C778.716 144.35 779.65 144.185 780.584 144.075C781.792 143.965 783.056 143.91 784.375 144.624Z" stroke="black" stroke-width="12" mask="url(#path-10-outside-1_154_4)"/>
<path d="M222 32V114.327H283.987V70.6087H292.191V114.327H354.178V70.6087H362.382V114.327H424.369L424.369 32H222Z" stroke="black" stroke-width="12" mask="url(#path-10-outside-1_154_4)"/>
<path d="M579.331 32V114.327H641.318V70.6087H649.522V114.327H711.509V70.6087H719.713V114.327H781.7L781.701 32H579.331Z" stroke="black" stroke-width="12" mask="url(#path-10-outside-1_154_4)"/>
<path d="M436.221 32H567.486V114.327H505.499V70.6087H498.207V114.327H436.22L436.221 32Z" stroke="black" stroke-width="12" mask="url(#path-10-outside-1_154_4)"/>
</svg>
