<svg width="1134" height="1133" viewBox="0 0 1134 1133" fill="none" xmlns="http://www.w3.org/2000/svg">
<path fill-rule="evenodd" clip-rule="evenodd" d="M1066.64 514.665C1022.49 516.998 928.275 504.455 904.574 435.622C896.435 411.984 880.39 388.424 850.366 390.301C831.316 393.335 756.913 393.183 768.568 369.287C773.781 358.598 781.602 351.548 788.848 345.016C801.85 333.296 812.999 323.246 803.905 296.835C801.659 290.311 790.738 287.617 779.048 284.733C768.113 282.035 756.505 279.171 750.698 272.851C720.765 244.601 763.6 223.528 805.047 203.139C855.97 178.087 904.796 154.067 813.989 119.034C715.347 80.978 704.235 145.542 698.675 177.855C696.597 189.929 695.294 197.5 690.489 193.533C634.702 178.498 637.063 130.256 640.478 60.483C641.379 42.0818 642.353 22.1831 642.353 1.001C642.353 1.001 912.09 -5.99955 1038 168.5C1153.34 328.353 1131.85 514.665 1131.85 514.665L1066.64 514.665ZM969.572 388.033C1030.35 388.033 1034.73 336.85 1016.86 328.692C998.989 320.533 971.99 322.033 957.49 337.033C942.99 352.033 920.49 388.033 969.572 388.033Z" fill="url(#paint0_radial_188_24)"/>
<path fill-rule="evenodd" clip-rule="evenodd" d="M513.767 66.2802C516.1 110.426 503.557 204.642 434.724 228.344C411.086 236.483 387.526 252.527 389.403 282.552C392.437 301.602 392.285 376.005 368.389 364.35C357.7 359.136 350.65 351.315 344.118 344.07C332.398 331.068 322.348 319.919 295.937 329.013C289.413 331.259 286.719 342.18 283.835 353.869C281.137 364.805 278.273 376.412 271.953 382.22C243.703 412.152 222.631 369.317 202.241 327.871C177.189 276.948 153.169 228.121 118.136 318.928C80.0801 417.571 144.644 428.682 176.957 434.243C189.031 436.321 196.602 437.624 192.635 442.428C177.6 498.216 129.358 495.854 59.5851 492.439C41.1839 491.539 21.2852 490.565 0.103094 490.565C0.103094 490.565 -9.89618 235.842 164.604 109.933C324.457 -5.40851 513.767 1.06697 513.767 1.06697L513.767 66.2802ZM387.135 163.346C387.135 102.566 335.952 98.1889 327.793 116.058C319.635 133.928 321.135 160.928 336.135 175.428C351.135 189.928 387.135 212.428 387.135 163.346Z" fill="url(#paint1_radial_188_24)"/>
<path fill-rule="evenodd" clip-rule="evenodd" d="M75.81 618.257C119.956 615.924 214.172 628.467 237.874 697.301C246.013 720.939 262.057 744.499 292.082 742.621C311.132 739.587 385.535 739.739 373.88 763.636C368.666 774.325 360.845 781.375 353.599 787.906C340.598 799.626 329.448 809.676 338.543 836.087C340.789 842.611 351.71 845.306 363.399 848.19C374.334 850.887 385.942 853.751 391.75 860.072C421.682 888.321 378.847 909.394 337.401 929.784C286.478 954.835 237.651 978.856 328.458 1013.89C427.101 1051.94 438.212 987.38 443.773 955.067C445.851 942.993 447.154 935.422 451.958 939.389C507.746 954.424 505.384 1002.67 501.969 1072.44C501.068 1090.84 500.094 1110.74 500.094 1131.92C500.094 1131.92 245.372 1141.92 119.463 967.421C4.12127 807.568 10.5968 618.257 10.5968 618.257L75.81 618.257ZM172.876 744.89C112.096 744.89 107.719 796.072 125.588 804.231C143.458 812.39 170.458 810.89 184.958 795.89C199.458 780.89 221.958 744.89 172.876 744.89Z" fill="url(#paint2_radial_188_24)"/>
<path fill-rule="evenodd" clip-rule="evenodd" d="M618.257 1066.65C615.924 1022.51 628.467 928.292 697.3 904.591C720.938 896.452 744.498 880.407 742.621 850.383C739.587 831.332 739.739 756.93 763.635 768.585C774.324 773.798 781.374 781.619 787.906 788.865C799.626 801.867 809.676 813.016 836.087 803.922C842.611 801.675 845.305 790.755 848.189 779.065C850.887 768.13 853.751 756.522 860.071 750.715C888.321 720.782 909.393 763.617 929.783 805.064C954.835 855.987 978.855 904.813 1013.89 814.006C1051.94 715.364 987.38 704.252 955.066 698.691C942.993 696.614 935.422 695.311 939.389 690.506C954.424 634.719 1002.67 637.08 1072.44 640.495C1090.84 641.396 1110.74 642.37 1131.92 642.37C1131.92 642.37 1141.92 897.092 967.42 1023C807.567 1138.34 618.257 1131.87 618.257 1131.87L618.257 1066.65ZM744.889 969.589C744.889 1030.37 796.072 1034.75 804.23 1016.88C812.389 999.007 810.889 972.007 795.889 957.507C780.889 943.007 744.889 920.507 744.889 969.589Z" fill="url(#paint3_radial_188_24)"/>
<path d="M574.98 116.001L615.438 522.543L1021.98 563.001L615.438 603.459L574.98 1010L534.523 603.459L127.98 563.001L534.523 522.543L574.98 116.001Z" fill="url(#paint4_radial_188_24)"/>
<circle cx="574.98" cy="563.001" r="200" stroke="url(#paint5_radial_188_24)" stroke-width="66"/>
<defs>
<radialGradient id="paint0_radial_188_24" cx="0" cy="0" r="1" gradientUnits="userSpaceOnUse" gradientTransform="translate(745.826 396.992) rotate(-42.6121) scale(415.078 897.335)">
<stop stop-color="#FF69B4"/>
<stop offset="1" stop-color="#993F6C"/>
</radialGradient>
<radialGradient id="paint1_radial_188_24" cx="0" cy="0" r="1" gradientUnits="userSpaceOnUse" gradientTransform="translate(396.079 387.42) rotate(-132.704) scale(414.413 896.132)">
<stop stop-color="#39FF14"/>
<stop offset="1" stop-color="#55BB42"/>
</radialGradient>
<radialGradient id="paint2_radial_188_24" cx="0" cy="0" r="1" gradientUnits="userSpaceOnUse" gradientTransform="translate(396.95 735.946) rotate(137.296) scale(414.413 896.132)">
<stop stop-color="#37E7FF"/>
<stop offset="1" stop-color="#3EA4C5"/>
</radialGradient>
<radialGradient id="paint3_radial_188_24" cx="0" cy="0" r="1" gradientUnits="userSpaceOnUse" gradientTransform="translate(735.945 745.515) rotate(47.2964) scale(414.413 896.132)">
<stop stop-color="#FF4500"/>
<stop offset="1" stop-color="#AA4C29"/>
</radialGradient>
<radialGradient id="paint4_radial_188_24" cx="0" cy="0" r="1" gradientUnits="userSpaceOnUse" gradientTransform="translate(574.98 563.001) rotate(90) scale(447)">
<stop stop-color="white"/>
<stop offset="1" stop-color="#C8C8C8"/>
</radialGradient>
<radialGradient id="paint5_radial_188_24" cx="0" cy="0" r="1" gradientUnits="userSpaceOnUse" gradientTransform="translate(574.98 563.001) rotate(90) scale(233)">
<stop stop-color="white"/>
<stop offset="1" stop-color="#C8C8C8"/>
</radialGradient>
</defs>
</svg>
