<svg width="1162" height="170" viewBox="0 0 1162 170" fill="none" xmlns="http://www.w3.org/2000/svg">
<path fill-rule="evenodd" clip-rule="evenodd" d="M374.153 5.37326C371.175 6.20333 370.313 7.74911 368.156 16.123C363.173 35.478 362.875 36.0883 355.266 42.5798C346.968 49.6585 346.569 50.9486 347.244 68.5663C347.815 83.4612 347.368 82.9396 359.548 82.9396C371.268 82.9396 375.101 86.964 364.21 87.8326C354.298 88.6228 358.177 141.452 368.997 153.015C389.487 174.912 423.219 161.421 423.219 131.326C423.219 117.382 422.531 115.063 418.392 115.063C405.598 115.063 402.014 83.3726 414.729 82.6774C432.107 81.7266 431.117 36.4841 413.7 35.6643C405.724 35.2891 405.724 35.2891 405.724 21.3463C405.724 9.28075 405.481 7.27754 403.923 6.46675C401.8 5.3617 377.406 4.4661 374.153 5.37326ZM31.9127 11.0565C17.4871 13.7767 13.2511 18.2046 11.7022 32.1847C3.75616 103.885 2.86697 144.586 9.08098 152.046C18.5101 163.364 37.9631 166.701 55.8127 160.064C67.0664 155.88 68.9827 135.98 58.7241 129.84C49.7438 124.465 42.5078 112.245 47.1606 110.311C47.7791 110.054 49.5986 112.212 51.2041 115.104C60.7577 132.316 86.3085 130.695 90.9695 112.583C91.8185 109.282 95.1684 112.039 94.3646 115.378C93.3684 119.516 86.7602 127.896 82.8279 130.007C78.8821 132.124 78.208 139.299 81.104 148.338C88.4552 171.275 137.13 167.146 137.109 143.587C137.092 123.784 128.445 31.6553 125.94 24.5869C120.504 9.2422 80.2581 4.22839 77.0193 18.4912C76.7538 19.663 74.8283 29.5827 72.7422 40.5368C68.6482 62.0247 68.3827 62.8535 66.1433 61.1252C64.8548 60.132 64.9042 58.4474 66.5096 48.5702C68.4002 36.9466 66.7175 22.4757 62.7749 16.4314C60.0239 12.2155 42.2135 9.11371 31.9127 11.0565ZM492.172 11.1079C474.208 14.9666 474.709 12.9235 474.698 82.2971C474.685 157.856 475.045 159.19 496.379 162.535C522.036 166.557 532.174 156.894 522.492 137.642C514.995 122.733 513.523 119.051 514.192 116.875C515.279 113.34 516.696 115.235 524.134 130.161C539.557 161.112 540.519 161.963 560.096 161.963C584.795 161.963 584.203 163.596 584.59 94.405C585.018 17.7536 584.395 15.1992 564.24 11.0064C538.658 5.68422 527.333 17.7163 537.455 39.4638C547.956 62.0234 544.657 65.0713 533.86 42.7854C518.852 11.8095 512.255 6.79569 492.172 11.1079ZM947.572 11.1118C931.476 13.981 928.937 16.9749 926.972 35.397C925.275 51.3173 920.832 109.278 919.783 129.197C918.218 158.869 946.692 174.071 974.285 158.298C982.44 153.638 983.583 133.242 975.798 131.298C971.474 130.219 961.465 117.594 961.465 113.219C961.465 108.361 963.873 109.159 966.998 115.051C975.81 131.678 996.475 132.033 1004.95 115.703C1007.67 110.462 1009.84 109.89 1009.84 114.417C1009.84 118.666 1003.57 127.209 998.339 130.091C988.947 135.265 995.973 155.302 1009.12 160.846C1031.75 170.384 1053.74 158.68 1052.6 137.703C1051.53 117.863 1043.94 34.1044 1042.73 28.6909C1039.57 14.6068 1027.58 8.12945 1009.82 10.91C993.633 13.4439 993.407 13.7382 988.804 38.3408C984.545 61.0983 983.949 63.2055 982.163 61.8268C980.573 60.5997 980.735 54.4834 982.594 45.53C986.554 26.4487 979.687 13.8757 963.732 10.9948C955.988 9.59684 956.08 9.59556 947.572 11.1118ZM179.697 33.458C131.78 46.4706 125.266 136.61 170.603 159.271C190.396 169.164 220.567 165.518 233.718 151.646C240.92 144.048 236.544 116.498 228.907 121.362C214.565 130.497 187.445 130.581 180.87 121.509C178.178 117.795 179.581 116.975 184.461 119.412C206.865 130.604 234.282 119.1 239.596 96.2759C248.599 57.6109 216.133 23.5641 179.697 33.458ZM287.886 32.4404C239.478 40.4751 228.178 131.789 272.393 157.622C292.906 169.607 330.243 165.369 339.954 149.955C344.407 142.887 340.209 115.04 335.437 119.985C326.942 128.787 301.335 131.049 288.767 124.108C281.737 120.226 282.62 115.822 289.689 119.51C309.605 129.9 335.793 120.476 343.11 100.286C356.25 64.0343 325.456 26.2033 287.886 32.4404ZM629.265 33.5017C574.808 48.2656 576.742 151.044 631.706 163.272C659.696 169.499 686.739 158.214 686.637 140.347C686.589 132.011 683.748 119.365 682.029 119.836C681.475 119.988 678.152 121.588 674.646 123.392C659.473 131.198 629.05 128.69 629.05 119.632C629.05 117.116 628.895 117.102 636.544 120.354C659.815 130.248 685.896 117.16 689.809 93.6238C696.206 55.1542 664.721 23.8892 629.265 33.5017ZM1097.31 32.8721C1040.75 45.4156 1041.75 150.572 1098.55 163.443C1124.1 169.231 1152.89 157.655 1152.89 141.594C1152.89 128.769 1149.43 116.857 1146.56 119.824C1137.92 128.783 1112.43 131.117 1099.74 124.108C1092.71 120.226 1093.59 115.822 1100.66 119.51C1119.16 129.162 1145.74 120.818 1153.05 103.059C1168.57 65.3861 1135.94 24.3042 1097.31 32.8721ZM721.673 34.8394C712.029 37.4465 704.201 40.6909 702.536 42.77C699.785 46.2046 701.795 77.7998 704.764 77.7998C705.043 77.7998 708.151 76.5573 711.672 75.0398C722.685 70.2894 743.285 71.122 743.285 76.3183C743.285 78.4436 742.75 78.5361 737.059 77.3912C701.276 70.1969 678.745 116.963 702.036 150.084C711.882 164.086 752.511 168.471 746.901 154.928C745.535 151.631 745.664 147.186 747.125 147.186C747.417 147.186 749.505 149.809 751.766 153.013C763.199 169.232 785.553 165.008 792.809 145.259C794.908 139.545 795.431 126.025 793.607 124.618C790.131 121.935 788.613 113.188 788.591 95.7041C788.523 43.6887 765.706 22.9357 721.673 34.8394ZM847.605 35.4407C840.153 38.2997 834.538 44.5881 830.763 54.3035C828.782 59.4009 826.698 63.4047 826.132 63.1991C824.011 62.4282 824.501 55.7581 827.105 49.9386C831.562 39.9842 826.053 35.397 809.641 35.397C796.114 35.397 789.775 56.2502 797.338 75.8724C799.087 80.4095 799.382 84.9543 799.861 114.65C800.572 158.739 802.343 161.991 825.617 161.939C847.747 161.888 848.727 160.403 849.05 126.408C849.326 97.2884 849.326 97.2884 846.291 96.4558C842.934 95.5358 840.542 92.7243 841.489 90.8123C841.877 90.0272 843.505 90.0619 845.951 90.9061C851.334 92.7629 870.515 91.5268 875.21 89.0186C885.243 83.6604 885.205 43.8249 875.161 37.733C869.816 34.4911 853.597 33.142 847.605 35.4407ZM197.63 79.3417C201.087 83.6578 197.483 87.7491 191.638 86.1455C188.041 85.1599 187.819 83.8814 190.631 80.3697C192.954 77.4696 195.796 77.052 197.63 79.3417ZM301.848 79.1297C306.378 82.157 302.814 87.564 297.16 86.2393C293 85.2653 292.479 82.734 295.834 79.8005C298.532 77.44 299.207 77.3655 301.848 79.1297ZM646.613 79.1297C651.143 82.157 647.579 87.564 641.925 86.2393C637.765 85.2653 637.245 82.734 640.6 79.8005C643.297 77.44 643.972 77.3655 646.613 79.1297ZM1113.33 79.6514C1117.17 83.2158 1112.59 87.9906 1107.01 86.2418C1104.15 85.3449 1103.79 82.7417 1106.13 79.8184C1108.15 77.3025 1110.73 77.2434 1113.33 79.6514ZM747.402 111.103C747.402 115.89 743.334 119.365 739.279 118.041C737.174 117.354 736.231 112.735 737.797 110.78C738.844 109.472 747.402 109.76 747.402 111.103Z" fill="white" stroke="black" stroke-width="10"/>
</svg>
