<svg width="165" height="16" viewBox="0 0 165 16" fill="none" xmlns="http://www.w3.org/2000/svg">
<path d="M19.654 0.819999V16H14.985V10.733L15.054 5.627H14.985L12.041 16H7.763L4.865 5.627H4.773L4.842 10.733V16H0.15V0.819999H7.648L9.396 7.559L10.063 10.388H10.109L10.776 7.559L12.524 0.819999H19.654ZM21.9596 16V0.819999H34.5636V4.753H27.3186V6.639H33.1606V10.273H27.3186V12.067H34.8396V16H21.9596ZM36.357 16V0.819999H48.961V4.753H41.716V6.639H47.558V10.273H41.716V12.067H49.237V16H36.357ZM64.9225 0.819999V4.753H60.1845V16H54.8255V4.753H50.0645V0.819999H64.9225ZM81.3801 0.819999V16H75.5841L71.9501 9.1L71.1221 7.237H71.0761L71.1681 10.365V16H66.5221V0.819999H72.3181L75.9521 7.743L76.7801 9.583H76.8261L76.7341 6.455V0.819999H81.3801ZM83.6822 16V0.819999H96.2862V4.753H89.0412V6.639H94.8832V10.273H89.0412V12.067H96.5622V16H83.6822ZM113.007 16H107.533L106.843 13.102H102.749L102.036 16H96.6997L101.622 0.819999H108.062L113.007 16ZM103.554 9.767H106.061L104.819 4.5L103.554 9.767ZM122.171 0.819999C124.149 0.819999 125.667 1.26467 126.725 2.154C127.783 3.028 128.312 4.19333 128.312 5.65C128.312 7.32133 127.791 8.57867 126.748 9.422C125.721 10.2653 124.218 10.687 122.24 10.687L121.711 10.963H119.181V16H113.937V0.819999H122.171ZM121.251 7.444C121.818 7.444 122.24 7.34433 122.516 7.145C122.807 6.93033 122.953 6.56233 122.953 6.041C122.953 5.535 122.807 5.17467 122.516 4.96C122.24 4.74533 121.818 4.638 121.251 4.638H119.181V7.444H121.251ZM124.425 8.571L129.163 16H123.344L119.802 9.353L124.425 8.571ZM149.658 0.819999V16H144.989V10.733L145.058 5.627H144.989L142.045 16H137.767L134.869 5.627H134.777L134.846 10.733V16H130.154V0.819999H137.652L139.4 7.559L140.067 10.388H140.113L140.78 7.559L142.528 0.819999H149.658ZM151.963 16V0.819999H164.567V4.753H157.322V6.639H163.164V10.273H157.322V12.067H164.843V16H151.963Z" fill="white"/>
</svg>
