<svg width="185" height="213" viewBox="0 0 185 213" fill="none" xmlns="http://www.w3.org/2000/svg">
<path d="M127.039 123H35C37.8681 110.091 48.5582 112.299 57.1625 107.193C73.5888 97.4463 70.9814 87.9624 70.9814 84.0103C70.9814 80.0587 68.1134 77.6878 66.549 76.1071C64.9845 74.5264 61.3343 72.1554 57.1625 63.4618C48.5582 47.9186 54.8158 22.3646 70.9814 10.7731C87.1471 -0.818388 109.571 2.60637 119.217 7.87524C126.935 12.0903 128.865 19.2911 128.865 22.3646V45.5477C130.69 48.2699 134.758 54.3467 136.426 56.8757C138.094 59.4047 135.73 60.5639 134.34 60.8274H128.865V84.0103C128.865 93.4942 119.739 93.7579 117.392 93.7579H107.745V107.193C125.475 112.462 127.996 119.927 127.039 123Z" fill="#39FF14"/>
<path d="M15.1557 167H109C106.075 154.092 95.1759 156.299 86.4026 151.193C69.6545 141.446 72.313 131.962 72.313 128.01C72.313 124.059 75.2373 121.688 76.8324 120.107C78.4275 118.526 82.1494 116.156 86.4026 107.462C95.1759 91.9189 88.7954 66.3646 72.313 54.7731C55.8304 43.1816 32.9675 46.6064 23.1312 51.8752C15.262 56.0903 13.2948 63.2911 13.2948 66.3647V89.5475C11.4338 92.2702 7.28662 98.346 5.5852 100.876C3.88377 103.405 6.29412 104.564 7.71198 104.827H13.2948V128.01C13.2948 137.494 22.5994 137.758 24.9921 137.758H34.8285V151.193C16.7508 156.462 14.181 163.927 15.1557 167Z" fill="#FF69B4"/>
<path d="M93.5 150.775C89.8532 150.775 86.3557 149.34 83.7773 146.785C81.1987 144.229 79.75 140.764 79.75 137.15C79.75 133.536 81.1987 130.071 83.7773 127.515C86.3557 124.96 89.8532 123.525 93.5 123.525C97.1468 123.525 100.644 124.96 103.223 127.515C105.801 130.071 107.25 133.536 107.25 137.15C107.25 138.939 106.894 140.711 106.203 142.364C105.512 144.017 104.5 145.519 103.223 146.785C101.946 148.049 100.43 149.053 98.7622 149.738C97.0936 150.423 95.3059 150.775 93.5 150.775ZM93.5 99C83.2892 99 73.4965 103.02 66.2764 110.174C59.0562 117.329 55 127.032 55 137.15C55 156.534 68.2072 166.373 79.75 180.895C85.2459 187.809 90.3636 208 93.5 208C96.6364 208 101.754 187.809 107.25 180.895C118.793 166.373 132 156.534 132 137.15C132 127.032 127.944 117.329 120.724 110.174C113.503 103.02 103.711 99 93.5 99Z" fill="#7F7F7F"/>
<path d="M127.039 123H35C37.8681 110.091 48.5582 112.299 57.1625 107.193C73.5888 97.4463 70.9814 87.9624 70.9814 84.0103C70.9814 80.0587 68.1134 77.6878 66.549 76.1071C64.9845 74.5264 61.3343 72.1554 57.1625 63.4618C48.5582 47.9186 54.8158 22.3646 70.9814 10.7731C87.1471 -0.818388 109.571 2.60637 119.217 7.87524C126.935 12.0903 128.865 19.2911 128.865 22.3646V45.5477C130.69 48.2699 134.758 54.3467 136.426 56.8757C138.094 59.4047 135.73 60.5639 134.34 60.8274H128.865V84.0103C128.865 93.4942 119.739 93.7579 117.392 93.7579H107.745V107.193C125.475 112.462 127.996 119.927 127.039 123Z" fill="#39FF14" stroke="black" stroke-width="6"/>
<path d="M171.844 167H78C80.9243 154.092 91.824 156.299 100.597 151.193C117.345 141.446 114.687 131.962 114.687 128.01C114.687 124.059 111.763 121.688 110.168 120.107C108.573 118.526 104.85 116.156 100.597 107.462C91.824 91.9189 98.2046 66.3646 114.687 54.7731C131.169 43.1816 154.033 46.6064 163.869 51.8752C171.738 56.0903 173.705 63.2911 173.705 66.3647V89.5475C175.566 92.2702 179.714 98.346 181.415 100.876C183.116 103.405 180.706 104.564 179.288 104.827H173.705V128.01C173.705 137.494 164.4 137.758 162.008 137.758H152.172V151.193C170.25 156.462 172.819 163.927 171.844 167Z" fill="#FF4500" stroke="black" stroke-width="6"/>
<path d="M15.1557 167H109C106.075 154.092 95.1759 156.299 86.4026 151.193C69.6545 141.446 72.313 131.962 72.313 128.01C72.313 124.059 75.2373 121.688 76.8324 120.107C78.4275 118.526 82.1494 116.156 86.4026 107.462C95.1759 91.9189 88.7954 66.3646 72.313 54.7731C55.8304 43.1816 32.9675 46.6064 23.1312 51.8752C15.262 56.0903 13.2948 63.2911 13.2948 66.3647V89.5475C11.4338 92.2702 7.28662 98.346 5.5852 100.876C3.88377 103.405 6.29412 104.564 7.71198 104.827H13.2948V128.01C13.2948 137.494 22.5994 137.758 24.9921 137.758H34.8285V151.193C16.7508 156.462 14.181 163.927 15.1557 167Z" stroke="black" stroke-width="9"/>
<path d="M15.1557 167H109C106.075 154.092 95.1759 156.299 86.4026 151.193C69.6545 141.446 72.313 131.962 72.313 128.01C72.313 124.059 75.2373 121.688 76.8324 120.107C78.4275 118.526 82.1494 116.156 86.4026 107.462C95.1759 91.9189 88.7954 66.3646 72.313 54.7731C55.8304 43.1816 32.9675 46.6064 23.1312 51.8752C15.262 56.0903 13.2948 63.2911 13.2948 66.3647V89.5475C11.4338 92.2702 7.28662 98.346 5.5852 100.876C3.88377 103.405 6.29412 104.564 7.71198 104.827H13.2948V128.01C13.2948 137.494 22.5994 137.758 24.9921 137.758H34.8285V151.193C16.7508 156.462 14.181 163.927 15.1557 167Z" fill="#FF69B4" stroke="black" stroke-width="6"/>
<path fill-rule="evenodd" clip-rule="evenodd" d="M112.9 123H127.039C127.996 119.927 125.475 112.462 107.745 107.193V93.7579H117.392C119.739 93.7579 128.865 93.4942 128.865 84.0103V60.8274H134.34C135.73 60.5639 138.094 59.4047 136.426 56.8757C135.17 54.971 132.552 51.0537 130.557 48.0729C125.043 49.2113 119.583 51.3296 114.687 54.7731C98.2046 66.3646 91.824 91.9189 100.597 107.462C104.182 114.79 107.39 117.625 109.265 119.282C109.614 119.591 109.917 119.859 110.168 120.107C110.327 120.265 110.5 120.431 110.681 120.605C111.368 121.265 112.184 122.049 112.9 123Z" fill="#7A2100"/>
<path d="M122.483 108.398C130.174 116.02 134.5 126.361 134.5 137.15C134.5 147.499 130.945 155.301 125.993 162.291C123.54 165.754 120.731 169.036 117.867 172.306C117.417 172.821 116.965 173.335 116.513 173.849C114.067 176.632 111.602 179.437 109.207 182.45L122.483 108.398ZM122.483 108.398C114.792 100.778 104.367 96.5 93.5 96.5C82.6334 96.5 72.2074 100.777 64.5167 108.398M122.483 108.398H64.5167H122.483ZM64.5167 108.398C56.8252 116.02 52.5 126.361 52.5 137.15L64.5167 108.398ZM64.5167 108.398L52.5 137.15L64.5167 108.398ZM52.5 137.15C52.5 147.499 56.0547 155.3 61.0064 162.291L52.5 137.15ZM52.5 137.15L61.0064 162.291L52.5 137.15ZM61.0064 162.291C63.46 165.754 66.2685 169.036 69.1325 172.306L61.0064 162.291ZM61.0064 162.291L69.1325 172.306L61.0064 162.291ZM69.1325 172.306C69.5831 172.821 70.0349 173.335 70.4873 173.85L69.1325 172.306ZM69.1325 172.306L70.4873 173.85L69.1325 172.306ZM70.4873 173.85C72.9331 176.632 75.3978 179.437 77.793 182.45L70.4873 173.85ZM70.4873 173.85L77.793 182.45L70.4873 173.85ZM77.793 182.45C78.965 183.925 80.212 186.246 81.4998 189.081L77.793 182.45ZM77.793 182.45L81.4998 189.081L77.793 182.45ZM81.4998 189.081C82.688 191.696 83.8384 194.582 84.9525 197.376L81.4998 189.081ZM81.4998 189.081L84.9525 197.376L81.4998 189.081ZM84.9525 197.376C85.0311 197.574 85.1095 197.77 85.1878 197.966L84.9525 197.376ZM84.9525 197.376L85.1878 197.966L84.9525 197.376ZM85.1878 197.966C86.3556 200.894 87.5028 203.743 88.568 205.861L85.1878 197.966ZM85.1878 197.966L88.568 205.861L85.1878 197.966ZM88.568 205.861C89.0957 206.91 89.6661 207.908 90.2792 208.677L88.568 205.861ZM88.568 205.861L90.2792 208.677L88.568 205.861ZM90.2792 208.677C90.5865 209.063 90.9718 209.477 91.4438 209.811L90.2792 208.677ZM90.2792 208.677L91.4438 209.811L90.2792 208.677ZM91.4438 209.811C91.9152 210.145 92.6177 210.5 93.5 210.5L91.4438 209.811ZM91.4438 209.811L93.5 210.5L91.4438 209.811ZM93.5 210.5C94.3823 210.5 95.0848 210.145 95.5562 209.811L93.5 210.5ZM93.5 210.5L95.5562 209.811L93.5 210.5ZM95.5562 209.811C96.0282 209.477 96.4135 209.063 96.7208 208.677L95.5562 209.811ZM95.5562 209.811L96.7208 208.677L95.5562 209.811ZM96.7208 208.677C97.3339 207.908 97.9043 206.91 98.432 205.861L96.7208 208.677ZM96.7208 208.677L98.432 205.861L96.7208 208.677ZM98.432 205.861C99.4972 203.743 100.644 200.894 101.812 197.966L98.432 205.861ZM98.432 205.861L101.812 197.966L98.432 205.861ZM101.812 197.966C101.89 197.77 101.969 197.573 102.048 197.376L101.812 197.966ZM101.812 197.966L102.048 197.376L101.812 197.966ZM102.048 197.376C103.162 194.582 104.312 191.696 105.5 189.081L102.048 197.376ZM102.048 197.376L105.5 189.081L102.048 197.376ZM105.5 189.081C106.788 186.246 108.035 183.925 109.207 182.45L105.5 189.081ZM85.537 145.009C83.4297 142.921 82.25 140.093 82.25 137.15C82.25 134.207 83.4297 131.379 85.537 129.291C87.6447 127.202 90.5087 126.025 93.5 126.025C96.4913 126.025 99.3553 127.202 101.463 129.291C103.57 131.379 104.75 134.207 104.75 137.15C104.75 138.608 104.46 140.052 103.897 141.4C103.332 142.749 102.506 143.975 101.463 145.009C100.42 146.042 99.179 146.864 97.8126 147.425C96.4458 147.986 94.9807 148.275 93.5 148.275C90.5087 148.275 87.6447 147.098 85.537 145.009Z" fill="white"/>
<path d="M122.483 108.398C130.174 116.02 134.5 126.361 134.5 137.15C134.5 147.499 130.945 155.301 125.993 162.291C123.54 165.754 120.731 169.036 117.867 172.306C117.417 172.821 116.965 173.335 116.513 173.849C114.067 176.632 111.602 179.437 109.207 182.45M122.483 108.398L109.207 182.45M122.483 108.398C114.792 100.778 104.367 96.5 93.5 96.5C82.6334 96.5 72.2074 100.777 64.5167 108.398M122.483 108.398H64.5167M109.207 182.45C108.035 183.925 106.788 186.246 105.5 189.081M109.207 182.45L105.5 189.081M64.5167 108.398C56.8252 116.02 52.5 126.361 52.5 137.15M64.5167 108.398L52.5 137.15M52.5 137.15C52.5 147.499 56.0547 155.3 61.0064 162.291M52.5 137.15L61.0064 162.291M61.0064 162.291C63.46 165.754 66.2685 169.036 69.1325 172.306M61.0064 162.291L69.1325 172.306M69.1325 172.306C69.5831 172.821 70.0349 173.335 70.4873 173.85M69.1325 172.306L70.4873 173.85M70.4873 173.85C72.9331 176.632 75.3978 179.437 77.793 182.45M70.4873 173.85L77.793 182.45M77.793 182.45C78.965 183.925 80.212 186.246 81.4998 189.081M77.793 182.45L81.4998 189.081M81.4998 189.081C82.688 191.696 83.8384 194.582 84.9525 197.376M81.4998 189.081L84.9525 197.376M84.9525 197.376C85.0311 197.574 85.1095 197.77 85.1878 197.966M84.9525 197.376L85.1878 197.966M85.1878 197.966C86.3556 200.894 87.5028 203.743 88.568 205.861M85.1878 197.966L88.568 205.861M88.568 205.861C89.0957 206.91 89.6661 207.908 90.2792 208.677M88.568 205.861L90.2792 208.677M90.2792 208.677C90.5865 209.063 90.9718 209.477 91.4438 209.811M90.2792 208.677L91.4438 209.811M91.4438 209.811C91.9152 210.145 92.6177 210.5 93.5 210.5M91.4438 209.811L93.5 210.5M93.5 210.5C94.3823 210.5 95.0848 210.145 95.5562 209.811M93.5 210.5L95.5562 209.811M95.5562 209.811C96.0282 209.477 96.4135 209.063 96.7208 208.677M95.5562 209.811L96.7208 208.677M96.7208 208.677C97.3339 207.908 97.9043 206.91 98.432 205.861M96.7208 208.677L98.432 205.861M98.432 205.861C99.4972 203.743 100.644 200.894 101.812 197.966M98.432 205.861L101.812 197.966M101.812 197.966C101.89 197.77 101.969 197.573 102.048 197.376M101.812 197.966L102.048 197.376M102.048 197.376C103.162 194.582 104.312 191.696 105.5 189.081M102.048 197.376L105.5 189.081M85.537 145.009C83.4297 142.921 82.25 140.093 82.25 137.15C82.25 134.207 83.4297 131.379 85.537 129.291C87.6447 127.202 90.5087 126.025 93.5 126.025C96.4913 126.025 99.3553 127.202 101.463 129.291C103.57 131.379 104.75 134.207 104.75 137.15C104.75 138.608 104.46 140.052 103.897 141.4C103.332 142.749 102.506 143.975 101.463 145.009C100.42 146.042 99.179 146.864 97.8126 147.425C96.4458 147.986 94.9807 148.275 93.5 148.275C90.5087 148.275 87.6447 147.098 85.537 145.009Z" stroke="black" stroke-width="5"/>
<path d="M93.5 150.775C89.8532 150.775 86.3557 149.34 83.7773 146.785C81.1987 144.229 79.75 140.764 79.75 137.15C79.75 133.536 81.1987 130.071 83.7773 127.515C86.3557 124.96 89.8532 123.525 93.5 123.525C97.1468 123.525 100.644 124.96 103.223 127.515C105.801 130.071 107.25 133.536 107.25 137.15C107.25 138.939 106.894 140.711 106.203 142.364C105.512 144.017 104.5 145.519 103.223 146.785C101.946 148.049 100.43 149.053 98.7622 149.738C97.0936 150.423 95.3059 150.775 93.5 150.775ZM93.5 99C83.2892 99 73.4965 103.02 66.2764 110.174C59.0562 117.329 55 127.032 55 137.15C55 156.534 68.2072 166.373 79.75 180.895C85.2459 187.809 90.3636 208 93.5 208C96.6364 208 101.754 187.809 107.25 180.895C118.793 166.373 132 156.534 132 137.15C132 127.032 127.944 117.329 120.724 110.174C113.503 103.02 103.711 99 93.5 99Z" fill="#7D7D7D"/>
</svg>
