<svg width="223" height="259" viewBox="0 0 223 259" fill="none" xmlns="http://www.w3.org/2000/svg">
<g clip-path="url(#clip0_1_2)">
<path style="mix-blend-mode:multiply" d="M154.305 152H37C40.6554 135.649 54.2801 138.446 65.2463 131.978C86.1818 119.632 82.8587 107.619 82.8587 102.613C82.8587 97.6077 79.2033 94.6045 77.2095 92.6023C75.2156 90.6001 70.5633 87.5969 65.2463 76.585C54.2801 56.8969 62.2555 24.5285 82.8587 9.84595C103.462 -4.83663 132.041 -0.498594 144.336 6.1753C154.172 11.5144 156.632 20.6354 156.632 24.5285V53.8937C158.958 57.3419 164.142 65.0391 166.269 68.2426C168.395 71.446 165.382 72.9143 163.61 73.248H156.632V102.613C156.632 114.626 145.001 114.96 142.01 114.96H129.714V131.978C152.311 138.652 155.524 148.107 154.305 152Z" fill="url(#paint0_linear_1_2)"/>
<path style="mix-blend-mode:multiply" d="M210.208 207H92C95.6835 190.757 109.413 193.535 120.464 187.11C141.56 174.845 138.212 162.911 138.212 157.938C138.212 152.966 134.528 149.982 132.519 147.993C130.51 146.004 125.821 143.021 120.464 132.081C109.413 112.523 117.45 80.3672 138.212 65.7812C158.973 51.1952 187.772 55.5047 200.162 62.1347C210.074 67.4387 212.552 76.4997 212.552 80.3672V109.539C214.896 112.965 220.12 120.611 222.263 123.794C224.406 126.976 221.37 128.435 219.584 128.766H212.552V157.938C212.552 169.872 200.831 170.204 197.818 170.204H185.428V187.11C208.199 193.74 211.436 203.133 210.208 207Z" fill="url(#paint1_linear_1_2)"/>
<path style="mix-blend-mode:multiply" d="M12.7923 207H131C127.316 190.757 113.587 193.535 102.536 187.11C81.4398 174.845 84.7885 162.911 84.7885 157.938C84.7885 152.966 88.472 149.982 90.4812 147.993C92.4904 146.004 97.1785 143.021 102.536 132.081C113.587 112.523 105.55 80.3672 84.7885 65.7812C64.0268 51.1952 35.2283 55.5047 22.8383 62.1347C12.9262 67.4387 10.4482 76.4997 10.4482 80.3672V109.539C8.10417 112.965 2.88026 120.611 0.737122 123.794C-1.40602 126.976 1.6301 128.435 3.41605 128.766H10.4482V157.938C10.4482 169.872 22.1685 170.204 25.1823 170.204H37.5724V187.11C14.8015 193.74 11.5645 203.133 12.7923 207Z" fill="url(#paint2_linear_1_2)"/>
<path d="M111.5 186.55C106.906 186.55 102.5 184.733 99.2519 181.498C96.0035 178.263 94.1786 173.875 94.1786 169.3C94.1786 164.725 96.0035 160.337 99.2519 157.102C102.5 153.867 106.906 152.05 111.5 152.05C116.094 152.05 120.5 153.867 123.748 157.102C126.996 160.337 128.821 164.725 128.821 169.3C128.821 171.565 128.373 173.808 127.503 175.901C126.632 177.994 125.357 179.896 123.748 181.498C122.14 183.099 120.23 184.37 118.129 185.237C116.027 186.104 113.775 186.55 111.5 186.55ZM111.5 121C98.637 121 86.3008 126.089 77.2053 135.147C68.1098 144.205 63 156.49 63 169.3C63 193.841 79.6377 206.298 94.1786 224.683C101.102 233.437 107.549 259 111.5 259C115.451 259 121.898 233.437 128.821 224.683C143.362 206.298 160 193.841 160 169.3C160 156.49 154.89 144.205 145.795 135.147C136.699 126.089 124.363 121 111.5 121Z" fill="url(#paint3_linear_1_2)"/>
</g>
<defs>
<linearGradient id="paint0_linear_1_2" x1="160.694" y1="0" x2="59.3134" y2="0" gradientUnits="userSpaceOnUse">
<stop stop-color="#A46CFF"/>
<stop offset="1" stop-color="#FF756C"/>
</linearGradient>
<linearGradient id="paint1_linear_1_2" x1="157.5" y1="56" x2="212.811" y2="56" gradientUnits="userSpaceOnUse">
<stop stop-color="#FFEF5B"/>
<stop offset="1" stop-color="#FFAF51"/>
</linearGradient>
<linearGradient id="paint2_linear_1_2" x1="12.1296" y1="56" x2="102.859" y2="56" gradientUnits="userSpaceOnUse">
<stop stop-color="#58D7FF"/>
<stop offset="1" stop-color="#90FABA"/>
</linearGradient>
<linearGradient id="paint3_linear_1_2" x1="111.5" y1="121" x2="111.5" y2="259" gradientUnits="userSpaceOnUse">
<stop/>
<stop offset="1" stop-color="#9A9A9A"/>
</linearGradient>
<clipPath id="clip0_1_2">
<rect width="223" height="259" fill="white"/>
</clipPath>
</defs>
</svg>
