<svg width="1132" height="1131" viewBox="0 0 1132 1131" fill="none" xmlns="http://www.w3.org/2000/svg">
<path fill-rule="evenodd" clip-rule="evenodd" d="M65.2132 617.257C109.359 614.924 203.575 627.467 227.277 696.301C235.416 719.939 251.46 743.499 281.485 741.621C300.535 738.587 374.938 738.739 363.283 762.636C358.069 773.325 350.248 780.375 343.003 786.906C330.001 798.626 318.852 808.676 327.946 835.087C330.192 841.611 341.113 844.306 352.802 847.19C363.738 849.887 375.345 852.751 381.153 859.072C411.085 887.321 368.25 908.394 326.804 928.784C275.881 953.835 227.054 977.856 317.861 1012.89C416.504 1050.94 427.615 986.38 433.176 954.067C435.254 941.993 436.557 934.422 441.361 938.389C497.149 953.424 494.787 1001.67 491.372 1071.44C490.472 1089.84 489.498 1109.74 489.498 1130.92C489.498 1130.92 235.59 1130.92 117.558 1012.89C-0.474169 894.856 2.95762e-05 617.257 2.95762e-05 617.257L65.2132 617.257ZM162.279 743.889C101.499 743.889 97.1224 795.072 114.992 803.231C132.861 811.389 159.861 809.889 174.361 794.889C188.861 779.889 211.361 743.889 162.279 743.889Z" fill="url(#paint0_radial_176_88)"/>
<path fill-rule="evenodd" clip-rule="evenodd" d="M618.257 1065.65C615.924 1021.51 628.467 927.292 697.301 903.59C720.939 895.451 744.499 879.407 742.621 849.382C739.587 830.332 739.739 755.929 763.636 767.584C774.325 772.798 781.375 780.619 787.906 787.865C799.626 800.866 809.676 812.016 836.087 802.921C842.611 800.675 845.306 789.754 848.19 778.065C850.887 767.13 853.751 755.522 860.072 749.714C888.321 719.782 909.394 762.617 929.784 804.063C954.835 854.986 978.856 903.813 1013.89 813.006C1051.94 714.363 987.38 703.252 955.067 697.691C942.993 695.613 935.422 694.31 939.389 689.506C954.424 633.718 1002.67 636.08 1072.44 639.495C1090.84 640.396 1110.74 641.37 1131.92 641.37C1131.92 641.37 1131.92 895.277 1013.89 1013.31C895.856 1131.34 618.257 1130.87 618.257 1130.87L618.257 1065.65ZM744.889 968.588C744.889 1029.37 796.072 1033.74 804.231 1015.88C812.389 998.006 810.889 971.006 795.889 956.506C780.889 942.006 744.889 919.506 744.889 968.588Z" fill="url(#paint1_radial_176_88)"/>
<path fill-rule="evenodd" clip-rule="evenodd" d="M513.664 65.2132C515.997 109.359 503.454 203.575 434.621 227.277C410.983 235.416 387.423 251.46 389.3 281.485C392.334 300.535 392.182 374.938 368.286 363.283C357.597 358.069 350.547 350.248 344.015 343.003C332.295 330.001 322.245 318.852 295.834 327.946C289.31 330.192 286.616 341.113 283.732 352.802C281.034 363.738 278.17 375.345 271.85 381.153C243.6 411.085 222.527 368.25 202.138 326.804C177.086 275.881 153.066 227.054 118.033 317.861C79.9771 416.504 144.541 427.615 176.854 433.176C188.928 435.254 196.499 436.557 192.532 441.361C177.497 497.149 129.255 494.787 59.482 491.372C41.0808 490.472 21.1821 489.498 6.10352e-05 489.498C6.10352e-05 489.498 0 235.59 118.033 117.558C236.066 -0.474169 513.664 2.95762e-05 513.664 2.95762e-05L513.664 65.2132ZM387.032 162.279C387.032 101.499 335.849 97.1224 327.691 114.992C319.532 132.861 321.032 159.861 336.032 174.361C351.032 188.861 387.032 211.361 387.032 162.279Z" fill="url(#paint2_radial_176_88)"/>
<path fill-rule="evenodd" clip-rule="evenodd" d="M1066.65 513.664C1022.51 515.997 928.292 503.454 904.59 434.621C896.451 410.983 880.407 387.423 850.382 389.3C831.332 392.334 756.929 392.182 768.584 368.286C773.798 357.597 781.619 350.547 788.865 344.015C801.866 332.295 813.016 322.245 803.921 295.834C801.675 289.31 790.754 286.616 779.065 283.732C768.13 281.034 756.522 278.17 750.714 271.85C720.782 243.6 763.617 222.527 805.063 202.138C855.986 177.086 904.813 153.066 814.006 118.033C715.363 79.977 704.252 144.541 698.691 176.854C696.613 188.928 695.31 196.499 690.506 192.532C634.718 177.497 637.08 129.255 640.495 59.482C641.396 41.0808 642.37 21.1821 642.37 5.79075e-05C642.37 5.79075e-05 896.277 -3.12766e-06 1014.31 118.033C1132.34 236.066 1131.87 513.664 1131.87 513.664L1066.65 513.664ZM969.588 387.032C1030.37 387.032 1034.74 335.849 1016.88 327.691C999.006 319.532 972.006 321.032 957.506 336.032C943.006 351.032 920.506 387.032 969.588 387.032Z" fill="url(#paint3_radial_176_88)"/>
<path d="M575 115L615.458 521.542L1022 562L615.458 602.458L575 1009L534.542 602.458L128 562L534.542 521.542L575 115Z" fill="url(#paint4_radial_176_88)"/>
<circle cx="575" cy="562" r="200" stroke="url(#paint5_radial_176_88)" stroke-width="66"/>
<defs>
<radialGradient id="paint0_radial_176_88" cx="0" cy="0" r="1" gradientUnits="userSpaceOnUse" gradientTransform="translate(450.5 667.5) rotate(137.038) scale(467.34 448.194)">
<stop stop-color="#00EAF9"/>
<stop offset="1" stop-color="#008A93"/>
</radialGradient>
<radialGradient id="paint1_radial_176_88" cx="0" cy="0" r="1" gradientUnits="userSpaceOnUse" gradientTransform="translate(741 742.5) rotate(46.3095) scale(441.595 460.459)">
<stop stop-color="#FF4500"/>
<stop offset="1" stop-color="#992900"/>
</radialGradient>
<radialGradient id="paint2_radial_176_88" cx="0" cy="0" r="1" gradientUnits="userSpaceOnUse" gradientTransform="translate(385 396) rotate(-131.304) scale(411.331 485.714)">
<stop stop-color="#39FF14"/>
<stop offset="1" stop-color="#22990C"/>
</radialGradient>
<radialGradient id="paint3_radial_176_88" cx="0" cy="0" r="1" gradientUnits="userSpaceOnUse" gradientTransform="translate(745.5 396) rotate(-42.7016) scale(414.344 895.978)">
<stop stop-color="#FF69B4"/>
<stop offset="1" stop-color="#993F6C"/>
</radialGradient>
<radialGradient id="paint4_radial_176_88" cx="0" cy="0" r="1" gradientUnits="userSpaceOnUse" gradientTransform="translate(575 562) rotate(90) scale(447)">
<stop stop-color="white"/>
<stop offset="1" stop-color="#C8C8C8"/>
</radialGradient>
<radialGradient id="paint5_radial_176_88" cx="0" cy="0" r="1" gradientUnits="userSpaceOnUse" gradientTransform="translate(575 562) rotate(90) scale(233)">
<stop stop-color="white"/>
<stop offset="1" stop-color="#C8C8C8"/>
</radialGradient>
</defs>
</svg>
