<svg width="826" height="599" viewBox="0 0 826 599" fill="none" xmlns="http://www.w3.org/2000/svg">
<path d="M238.393 449.112C251.402 427.966 270.703 414.732 298.384 407.963C395.286 384.27 468.266 451.625 453.546 551.156C446.021 601.999 293.332 617.878 288.081 568.363C285.76 546.456 294.472 508.332 306.142 489.312C307.932 486.388 300.751 491.298 290.176 500.223C246.641 536.954 150.482 527.801 149.965 486.875C149.925 484.072 148.407 482.376 146.59 483.107C144.767 483.836 147.943 497.496 153.651 513.458C175.591 574.895 128.596 603.974 37.787 585.146C-28.3435 571.433 -1.38476 427.086 70.0699 412.27C130.2 399.801 183.116 413.687 213.51 449.902C227.586 466.669 227.586 466.669 238.393 449.112Z" fill="white"/>
<path d="M491.206 548.099C444.211 484.644 511.044 423.975 640.899 412.209C761.318 401.295 833.867 401.6 818.895 446.669C816.243 476.19 788.85 460.162 708 460.8C678.5 461.033 649 453.377 649 476.8C649 500.223 670.886 484.665 690.3 483.107C795.079 474.706 816.243 481.422 816.243 498.33C816.243 514.5 793.203 518.557 701.387 518.557C682.433 518.557 664.733 515.342 664.733 528C664.733 538.164 693.404 542.036 701.387 540.8C775.706 529.307 821.587 540.713 824.896 558.97C835.199 615.869 534.138 606.061 491.206 548.099Z" fill="white"/>
<path d="M129.717 52.7109C136.791 30.1862 146.794 15.7025 160.941 7.50664C202.633 -16.6508 234.613 18.385 245.194 99.8211C253.059 160.311 240.852 179.091 193.677 179.091C149.407 179.091 137.669 156.949 152.616 101.65C154.651 94.1205 154.651 94.1205 148.085 100.574C129.249 119.087 111.038 119.547 96.5875 101.873C92.9069 97.3731 92.4424 101 94.2216 120.326C98.3707 165.386 63.8988 187.465 19.318 168.301C-18.1928 152.176 3.48543 18.2022 45.3658 7.34316C76.8696 -0.824752 108.46 20.9535 117.415 57.0132C120.899 71.0322 124.34 69.8298 129.717 52.7109Z" fill="white"/>
<path d="M682.2 64.34C611.162 68.7821 608.159 17.9032 678.748 5.85671C699.568 2.30517 764.296 1.85127 784.25 5.11887C844.356 14.9582 837.708 62.9289 776.235 62.9289C753.01 62.9289 753.01 62.9289 758.8 71.9013C798.37 133.185 783.096 179.091 723.136 179.091C662.179 179.091 650.283 144.559 689.353 81.0243C700.308 63.2085 700.308 63.2085 682.2 64.34Z" fill="white"/>
<path d="M283.284 153.206C237.998 104.315 270.911 24.5889 342.292 10.2623C381.999 2.2944 421.541 7.19473 429.957 21.1277C442.57 42.0111 416.77 56.4754 366.911 56.4754C349.169 56.4754 349.169 56.4754 349.169 65.8845C349.169 75.2915 349.169 75.2915 381.121 74.203C417.605 72.9597 429.867 76.5715 429.867 88.5663C429.867 103.071 415.971 108.105 375.937 108.101C349.169 108.097 349.169 108.097 350.535 120.083C351.688 130.225 352.897 131.845 358.408 130.621C412.751 118.549 454.34 138.839 427.438 164.295C400.883 189.423 310.386 182.46 283.284 153.206Z" fill="white"/>
<path d="M492.851 180.848C421.344 160.727 436.74 25.4989 512.026 12.4156C574.565 1.5458 620.787 11.5895 620.787 36.0459C620.787 57.2455 607.533 63.7205 562.031 64.7552C516.045 65.8006 505.735 84.4404 551.146 84.4404C588.283 84.4404 602.722 89.9516 602.947 104.218C603.207 120.56 576.371 128.279 539.105 122.582C528.425 120.95 528.279 121.062 528.279 130.819C528.279 140.461 528.555 140.682 539.105 139.54C570.29 136.16 579.595 135.922 594.546 138.122C629.943 143.332 632.939 168.34 599.522 179.624C577.659 187.009 517.206 187.702 492.851 180.848Z" fill="white"/>
<path d="M142.38 277.723C133.746 234.095 138.899 215.734 161.316 210.242C194.663 202.073 215.864 216.192 225.765 253.164C259.725 380.015 164.137 417.072 101.024 301.522C86.3815 274.715 86.3816 274.715 89.0038 291.764C99.0004 356.751 89.6024 374.001 44.2061 374.001C2.43099 374.001 -10.7608 330.385 9.02684 257.665C28.0065 187.904 92.298 200.494 134.227 282.182C140.867 295.115 146.622 305.495 147.015 305.249C147.412 305.004 145.326 292.616 142.38 277.723Z" fill="white"/>
<path d="M258.704 344.424C226.797 297.849 252.487 234.96 309.907 219.054C357.261 205.938 401.956 213.767 401.956 235.176C401.956 252.155 383.729 259.633 342.277 259.659C324.832 259.671 324.832 259.671 324.832 269.65C324.832 279.534 324.924 279.611 334.252 277.673C380.174 268.138 421.152 285.6 391.221 301.947C381.246 307.395 378.517 307.81 352.659 307.81C324.832 307.81 324.832 307.81 324.832 318.88C324.832 329.95 324.832 329.95 334.932 328.408C380.57 321.438 407.608 328.847 404.769 347.547C399.018 385.428 285.125 382.993 258.704 344.424Z" fill="white"/>
<path fill-rule="evenodd" clip-rule="evenodd" d="M499.491 210.513C413.197 227.304 378.367 374.001 460.676 374.001C489.48 374.001 501.805 365.051 508.907 338.978C515.121 316.154 521.313 319.506 521.313 345.7C521.313 387.067 589.116 393.965 613.946 355.125C657.528 286.952 584.015 194.068 499.491 210.513ZM543.293 292.602C562.328 285.791 562.919 263.873 544.263 256.737C527.116 250.176 501.503 253.576 491.933 263.683C472.806 283.883 509.664 304.637 543.293 292.602Z" fill="white"/>
<path fill-rule="evenodd" clip-rule="evenodd" d="M715.796 209.777C630.009 220.332 599.23 374.001 682.898 374.001C711.481 374.001 721.353 364.596 721.588 337.145C721.709 322.854 721.709 322.854 734.262 340.906C754.872 370.551 784.006 380.269 809.89 366.133C835.653 352.062 818.411 321.343 776.863 307.301C764.322 303.06 764.322 303.06 773.106 299.919C869.121 265.588 825.091 196.33 715.796 209.777ZM745.489 274.869C753.201 268.442 756.668 249.566 751.17 243.954C741.93 234.525 727.122 241.461 720.681 258.235C713.692 276.438 730.27 287.556 745.489 274.869Z" fill="white"/>
</svg>
