<svg width="574" height="574" viewBox="0 0 574 574" fill="none" xmlns="http://www.w3.org/2000/svg">
<path fill-rule="evenodd" clip-rule="evenodd" d="M260.204 19.7502C260.823 54.0322 258.26 70.8262 249.805 87.8932C242.338 102.967 234.252 110.026 214.954 118.319C200.939 124.342 197.396 130.653 197.802 148.87C198.629 185.936 192.879 192.7 175.09 175.587C165.165 166.039 161.575 164.415 154.097 166.09C147.563 167.555 146.533 168.929 143.44 180.31C135.399 209.892 122.649 206.016 102.981 168.013C83.2635 129.913 75.6704 126.973 63.4414 152.704C44.7154 192.102 51.9484 212.891 86.8814 220.078C98.6674 222.503 98.4144 222.23 95.4974 229.407C88.3624 246.958 76.3204 251.676 41.5005 250.562C2.15745 249.304 0.0484528 249.075 0.538453 246.101C21.9095 116.444 124.02 14.0972 245 1.0732C261.413 -0.6928 259.799 -2.6758 260.204 19.7502ZM345.321 4.0222C463.835 28.0442 556.8 128.059 572.476 248.403C574.352 262.801 577.986 260.92 547.943 261.103C498.443 261.404 472.945 250.834 460.857 225C454.463 211.335 453.949 210.394 450.803 206.577C445.017 199.558 441.887 198.708 421 198.487C386.819 198.126 382.363 193.894 398.476 177.094C408.269 166.883 409 165.636 409 159.131C409 149.339 407.362 147.785 393 143.954C365.433 136.601 369.861 122.947 405.764 104.595C444.82 84.6312 447.936 77.5202 423.092 65.0542C384.35 45.6152 361.931 52.9102 354.961 87.2232C352.406 99.8012 352.789 99.4222 345.593 96.4972C325.049 88.1452 321.475 72.6712 325.673 10.2502C326.414 -0.765798 324.576 -0.182795 345.321 4.0222ZM170 55.2172C160.616 60.0922 161.694 81.1092 171.795 90.2072C187.223 104.103 197.395 99.1762 195.673 78.6422C194.289 62.1342 180.646 49.6852 170 55.2172ZM498.326 165.034C487.279 167.246 476.406 179.357 477.185 188.581C478.239 201.048 508.757 199.337 516.994 186.349C525.896 172.311 516.359 161.422 498.326 165.034ZM310.364 184.44C371.198 199.872 401.654 266.099 373.854 322.5C368.364 333.638 359.907 345.122 340.812 367.367C315.704 396.616 315.184 397.45 303.074 427.804C286.98 468.143 286.238 468.186 270.485 429.669C256.674 395.9 256.672 395.896 233.65 369.152C214.794 347.247 212.516 344.405 206.027 334.685C163.671 271.238 200.47 192.416 277.5 181.59C284.13 180.659 301.339 182.151 310.364 184.44ZM275.3 245.802C237.85 259.174 246.797 312.443 286.5 312.488C331.446 312.54 332.92 246.375 288.02 244.294C282.515 244.039 279.107 244.443 275.3 245.802ZM59.5335 315.068C79.5905 317.858 96.6074 324.959 107.377 335.034C113.717 340.965 116.401 345.282 122.353 359.12C128.655 373.771 134.765 376.948 156.701 376.978C193.092 377.027 197.15 381.533 178.395 401.069C170.487 409.307 169.505 411.498 170.25 419.245C170.899 426.009 173.277 427.978 184.313 430.893C214.937 438.983 210.473 452.13 170.128 472.667C133.999 491.058 131.697 498.93 158.705 511.724C196.083 529.43 217.284 522.028 224.009 488.924C226.558 476.372 226.571 476.357 232.66 478.415C251.737 484.859 255.7 496.434 254.515 542.246C253.62 576.882 255.244 573.787 239.355 571.129C113.09 550.01 10.2634 443.515 5.32445 328.75C4.67845 313.753 20.8075 309.682 59.5335 315.068ZM553.84 325.658C570.264 326.253 572 326.484 572 328.077C572 329.046 570.893 335.4 569.541 342.197C545.63 462.369 449.067 554.276 328.114 571.985C311.468 574.422 313 576.306 313 553.402C313 498.133 324.623 471.562 354.107 459.43C372.585 451.826 377.069 444.724 376.241 424.374C374.853 390.293 381.809 382.56 398.5 399.629C414.531 416.023 425.039 414.446 430.545 394.819C439.235 363.848 452.162 369.688 475.018 414.909C490.775 446.086 500.341 446.872 512.579 417.995C528.119 381.323 520.618 362.321 487.938 355.573C474.702 352.841 475.453 353.536 478.1 346.463C485.464 326.779 497.037 323.6 553.84 325.658ZM79.6105 379.001C58.9524 382.689 50.3945 405.776 68.1105 410.026C81.6465 413.274 93.5545 407.636 100.048 394.906C106.116 383.013 96.9764 375.901 79.6105 379.001ZM383.206 478.048C375.366 481.194 376.416 504.914 384.806 514.212C399.968 531.015 417.706 514.09 407.624 492.44C403.219 482.98 390.133 475.267 383.206 478.048Z" fill="black"/>
<path fill-rule="evenodd" clip-rule="evenodd" d="M553.84 325.658C570.264 326.253 572 326.484 572 328.077C572 329.046 570.893 335.4 569.541 342.197C545.63 462.369 449.067 554.276 328.114 571.985C311.468 574.422 313 576.306 313 553.402C313 498.133 324.623 471.562 354.107 459.43C372.585 451.826 377.069 444.724 376.241 424.374C374.853 390.293 381.809 382.56 398.5 399.629C414.531 416.023 425.039 414.446 430.545 394.819C439.235 363.848 452.162 369.688 475.018 414.909C490.775 446.086 500.341 446.872 512.579 417.995C528.119 381.323 520.618 362.321 487.938 355.573C474.702 352.841 475.453 353.536 478.1 346.463C485.464 326.779 497.037 323.6 553.84 325.658ZM384.806 514.212C376.416 504.914 375.366 481.194 383.206 478.048C390.133 475.267 403.219 482.98 407.624 492.44C417.706 514.09 399.968 531.015 384.806 514.212Z" fill="#FF4500"/>
<path fill-rule="evenodd" clip-rule="evenodd" d="M59.5335 315.068C79.5905 317.858 96.6074 324.959 107.377 335.034C113.717 340.965 116.401 345.282 122.353 359.12C128.655 373.771 134.765 376.948 156.701 376.978C193.092 377.027 197.15 381.533 178.395 401.069C170.487 409.307 169.505 411.498 170.25 419.245C170.899 426.009 173.277 427.978 184.313 430.893C214.937 438.983 210.473 452.13 170.128 472.667C133.999 491.058 131.697 498.93 158.705 511.724C196.083 529.43 217.284 522.028 224.009 488.924C226.558 476.372 226.571 476.357 232.66 478.415C251.737 484.859 255.7 496.434 254.515 542.246C253.62 576.882 255.244 573.787 239.355 571.129C113.09 550.01 10.2634 443.515 5.32445 328.75C4.67845 313.753 20.8075 309.682 59.5335 315.068ZM68.1105 410.026C50.3945 405.776 58.9524 382.689 79.6105 379.001C96.9764 375.901 106.116 383.013 100.048 394.906C93.5545 407.636 81.6465 413.274 68.1105 410.026Z" fill="#00EAF9"/>
<path fill-rule="evenodd" clip-rule="evenodd" d="M260.204 19.7502C260.823 54.0322 258.26 70.8262 249.805 87.8932C242.338 102.967 234.252 110.026 214.954 118.319C200.939 124.342 197.396 130.653 197.802 148.87C198.629 185.936 192.879 192.7 175.09 175.587C165.165 166.039 161.575 164.415 154.097 166.09C147.563 167.555 146.533 168.929 143.44 180.31C135.399 209.892 122.649 206.016 102.981 168.013C83.2635 129.913 75.6704 126.973 63.4414 152.704C44.7154 192.102 51.9484 212.891 86.8814 220.078C98.6674 222.503 98.4144 222.23 95.4974 229.407C88.3624 246.958 76.3204 251.676 41.5005 250.562C2.15745 249.304 0.0484528 249.075 0.538453 246.101C21.9095 116.444 124.02 14.0972 245 1.0732C261.413 -0.6928 259.799 -2.6758 260.204 19.7502ZM171.795 90.2072C161.694 81.1092 160.616 60.0922 170 55.2172C180.646 49.6852 194.289 62.1342 195.673 78.6422C197.395 99.1762 187.223 104.103 171.795 90.2072Z" fill="#39FF14"/>
<path fill-rule="evenodd" clip-rule="evenodd" d="M345.321 4.0222C463.835 28.0442 556.8 128.059 572.476 248.403C574.352 262.801 577.986 260.92 547.943 261.103C498.443 261.404 472.945 250.834 460.857 225C454.463 211.335 453.949 210.394 450.803 206.577C445.017 199.558 441.887 198.708 421 198.487C386.819 198.126 382.363 193.894 398.476 177.094C408.269 166.883 409 165.636 409 159.131C409 149.339 407.362 147.785 393 143.954C365.433 136.601 369.861 122.947 405.764 104.595C444.82 84.6312 447.936 77.5202 423.092 65.0542C384.35 45.6152 361.931 52.9102 354.961 87.2232C352.406 99.8012 352.789 99.4222 345.593 96.4972C325.049 88.1452 321.475 72.6712 325.673 10.2502C326.414 -0.765798 324.576 -0.182795 345.321 4.0222ZM477.185 188.581C476.406 179.357 487.279 167.246 498.326 165.034C516.359 161.422 525.896 172.311 516.994 186.349C508.757 199.337 478.239 201.048 477.185 188.581Z" fill="#FF69B4"/>
<path fill-rule="evenodd" clip-rule="evenodd" d="M310.364 184.44C371.198 199.872 401.654 266.099 373.854 322.5C368.364 333.638 359.907 345.122 340.812 367.367C315.704 396.616 315.184 397.45 303.074 427.804C286.98 468.143 286.238 468.186 270.485 429.669C256.674 395.9 256.672 395.896 233.65 369.152C214.794 347.247 212.516 344.405 206.027 334.685C163.671 271.238 200.47 192.416 277.5 181.59C284.13 180.659 301.339 182.151 310.364 184.44ZM286.5 312.488C246.797 312.443 237.85 259.174 275.3 245.802C279.107 244.443 282.515 244.039 288.02 244.294C332.92 246.375 331.446 312.54 286.5 312.488Z" fill="white"/>
</svg>
