<svg width="24" height="24" viewBox="0 0 24 24" fill="none" xmlns="http://www.w3.org/2000/svg">
<path d="M24 0H0.5V23.5H24V0Z" fill="none"/>
<path fill-rule="evenodd" clip-rule="evenodd" d="M0.5 11.75C0.5 18.2125 5.7875 23.5 12.25 23.5C18.7125 23.5 24 18.2125 24 11.75C24 5.2875 18.7125 0 12.25 0C5.7875 0 0.5 5.2875 0.5 11.75ZM12.2502 19.5834C11.6627 19.5834 11.271 19.1917 11.271 18.6042V17.5144C9.5866 17.1265 8.3335 15.7667 8.3335 14.198C8.3335 13.9043 8.3335 13.7084 8.43141 13.5126C8.52933 13.023 9.11683 12.6313 9.60641 12.8272C10.096 12.9251 10.4877 13.5126 10.2918 14.0022V14.2959C10.2918 14.9816 10.9671 15.5923 11.8578 15.7338C11.975 15.69 12.1068 15.6667 12.2502 15.6667C12.3936 15.6667 12.5253 15.69 12.6425 15.7338C13.5333 15.5923 14.2085 14.9816 14.2085 14.2959V14.0022C14.0127 13.3168 13.2293 12.8272 12.2502 12.8272C12.0491 12.8272 11.871 12.7813 11.7237 12.6974C10.1 12.5001 8.78551 11.4039 8.43141 9.9875C8.3335 9.79167 8.3335 9.59583 8.3335 9.30208C8.3335 7.73339 9.5866 6.37354 11.271 5.98565V4.89585C11.271 4.30835 11.6627 3.91669 12.2502 3.91669C12.8377 3.91669 13.2293 4.30835 13.2293 4.89585V5.98565C14.9137 6.37354 16.1668 7.73339 16.1668 9.30208C16.1668 9.43386 16.1668 9.54594 16.158 9.64714C16.1639 9.69272 16.1668 9.74073 16.1668 9.79169C16.1668 10.0854 16.0689 10.2813 15.8731 10.4771C15.6772 10.6729 15.4814 10.7709 15.1877 10.7709C14.8939 10.7709 14.6981 10.6729 14.5022 10.4771L14.4982 10.473C14.2241 10.2363 14.0705 9.84282 14.2085 9.49792V9.20417C14.2085 8.52003 13.3305 7.83589 12.2562 7.83334L12.2502 7.83335L12.2441 7.83334C11.1698 7.8359 10.2918 8.52021 10.2918 9.30208V9.59583C10.4877 10.2812 11.271 10.7708 12.2502 10.7708C12.4512 10.7708 12.6293 10.8167 12.7766 10.9006C14.4003 11.0979 15.7148 12.1941 16.0689 13.6105C16.1668 13.7084 16.1668 13.9043 16.1668 14.198C16.1668 15.7667 14.9137 17.1265 13.2293 17.5144V18.6042C13.2293 19.1917 12.8377 19.5834 12.2502 19.5834Z" fill="#F5F5F5"/>
</svg>
